<?xml version="1.0" encoding="utf-8"?>
<svg xmlns="http://www.w3.org/2000/svg" viewBox="0 0 64 64" width="64px" height="64px" xmlns:bx="https://boxy-svg.com"><defs><bx:export><bx:file format="svg"/></bx:export></defs><path d="M 31.759 2.271 C 28.416 2.21 25.127 2.722 22.009 3.774 C 18.891 4.827 15.945 6.419 13.287 8.521 C 10.248 10.926 7.768 13.848 5.934 17.13 C 4.101 20.413 2.916 24.057 2.466 27.904 C 2.017 31.752 2.331 35.571 3.356 39.187 C 4.382 42.804 6.121 46.218 8.521 49.255 C 10.924 52.295 13.846 54.775 17.129 56.608 C 20.412 58.441 24.057 59.627 27.904 60.076 C 28.476 60.143 29.048 60.192 29.62 60.225 C 30.191 60.258 30.761 60.275 31.33 60.275 C 34.576 60.275 37.764 59.733 40.788 58.68 C 43.811 57.627 46.67 56.064 49.255 54.021 C 52.295 51.616 54.774 48.694 56.606 45.411 C 58.438 42.128 59.623 38.484 60.072 34.638 C 60.523 30.79 60.211 26.971 59.185 23.355 C 58.16 19.738 56.422 16.324 54.021 13.287 C 51.617 10.248 48.695 7.768 45.412 5.934 C 42.13 4.101 38.486 2.916 34.638 2.466 C 34.158 2.41 33.677 2.366 33.197 2.334 C 32.717 2.301 32.238 2.281 31.759 2.271 Z M 31.216 4.267 C 31.746 4.267 32.277 4.283 32.809 4.314 C 33.341 4.346 33.875 4.393 34.408 4.455 C 41.8 5.32 48.153 9.112 52.441 14.536 C 56.729 19.96 58.952 27.016 58.087 34.408 C 57.669 37.99 56.565 41.383 54.86 44.439 C 53.153 47.495 50.845 50.215 48.017 52.451 C 45.187 54.687 42.006 56.307 38.638 57.263 C 35.27 58.218 31.714 58.509 28.134 58.087 C 20.742 57.224 14.389 53.432 10.101 48.008 C 5.813 42.583 3.589 35.527 4.455 28.134 C 4.873 24.552 5.977 21.16 7.682 18.103 C 9.388 15.047 11.697 12.328 14.525 10.091 C 16.933 8.187 19.594 6.731 22.409 5.751 C 25.224 4.771 28.193 4.267 31.216 4.267 Z M 34.396 9.388 C 34.332 9.379 34.266 9.376 34.2 9.379 C 34.134 9.383 34.068 9.394 34.001 9.412 C 33.734 9.48 33.519 9.65 33.388 9.869 C 33.256 10.089 33.209 10.358 33.275 10.626 C 33.68 12.216 33.482 13.362 32.823 14.389 C 32.163 15.415 31.041 16.321 29.595 17.431 C 28.744 18.086 27.835 18.784 26.997 19.601 C 26.159 20.418 25.39 21.353 24.818 22.482 C 23.654 24.998 24.263 27.126 25.359 28.768 C 26.455 30.41 28.037 31.566 28.818 32.138 C 28.908 32.203 29.005 32.252 29.104 32.284 C 29.204 32.317 29.307 32.334 29.408 32.334 C 29.562 32.334 29.715 32.298 29.854 32.228 C 29.994 32.159 30.119 32.056 30.216 31.923 C 30.379 31.699 30.436 31.43 30.398 31.177 C 30.359 30.924 30.224 30.687 30.001 30.525 C 28.269 29.259 27.143 28.071 26.59 26.897 C 26.037 25.722 26.057 24.562 26.615 23.353 C 27.078 22.443 27.726 21.669 28.458 20.967 C 29.191 20.266 30.01 19.638 30.814 19.021 C 32.119 18.019 33.511 16.95 34.431 15.555 C 35.351 14.16 35.798 12.439 35.212 10.134 C 35.162 9.933 35.053 9.762 34.91 9.634 C 34.766 9.505 34.588 9.419 34.396 9.388 Z M 39.334 17.439 C 39.272 17.429 39.206 17.425 39.14 17.428 C 39.073 17.431 39.006 17.441 38.939 17.459 C 38.803 17.492 37.118 17.922 35.203 18.804 C 33.288 19.687 31.143 21.023 30.084 22.869 C 29.725 23.494 29.505 24.14 29.425 24.801 C 29.344 25.463 29.404 26.141 29.603 26.83 C 29.668 27.048 29.799 27.229 29.969 27.355 C 30.139 27.481 30.347 27.552 30.564 27.552 C 30.611 27.552 30.658 27.548 30.705 27.541 C 30.751 27.534 30.798 27.523 30.845 27.509 C 31.109 27.433 31.317 27.256 31.44 27.032 C 31.563 26.808 31.601 26.536 31.525 26.271 C 31.402 25.847 31.364 25.438 31.412 25.038 C 31.461 24.639 31.596 24.25 31.818 23.865 C 32.519 22.641 34.01 21.627 35.531 20.867 C 37.052 20.108 38.603 19.603 39.423 19.396 C 39.691 19.329 39.907 19.161 40.039 18.941 C 40.171 18.722 40.219 18.452 40.15 18.185 C 40.101 17.984 39.994 17.812 39.85 17.683 C 39.707 17.554 39.527 17.468 39.334 17.439 Z M 32.205 28.224 C 32.078 28.215 31.949 28.229 31.825 28.269 C 31.702 28.308 31.584 28.373 31.478 28.462 C 31.269 28.644 31.154 28.893 31.136 29.149 C 31.118 29.405 31.199 29.668 31.38 29.876 C 31.681 30.222 31.842 30.559 31.865 30.906 C 31.888 31.253 31.773 31.609 31.521 31.994 C 31.371 32.227 31.328 32.497 31.38 32.747 C 31.432 32.998 31.58 33.228 31.81 33.38 C 31.894 33.435 31.984 33.475 32.076 33.502 C 32.168 33.528 32.263 33.541 32.357 33.541 C 32.519 33.541 32.681 33.502 32.826 33.426 C 32.971 33.35 33.099 33.238 33.193 33.091 C 33.689 32.336 33.909 31.545 33.857 30.772 C 33.804 30 33.48 29.246 32.888 28.564 C 32.799 28.459 32.691 28.378 32.575 28.321 C 32.458 28.264 32.332 28.232 32.205 28.224 Z M 42.181 31.001 C 41.857 30.992 41.527 31.013 41.196 31.066 C 40.865 31.119 40.533 31.203 40.205 31.318 C 39.943 31.41 39.744 31.598 39.632 31.829 C 39.521 32.059 39.498 32.332 39.587 32.591 C 39.679 32.851 39.869 33.05 40.1 33.162 C 40.332 33.273 40.605 33.296 40.865 33.205 C 41.506 32.978 42.083 32.952 42.566 33.043 C 43.049 33.134 43.439 33.341 43.705 33.58 C 43.842 33.703 44.018 33.897 44.137 34.161 C 44.257 34.425 44.318 34.76 44.224 35.162 C 44.068 35.853 43.515 36.527 42.645 37.13 C 41.774 37.733 40.586 38.265 39.158 38.673 C 38.892 38.747 38.682 38.923 38.558 39.147 C 38.433 39.37 38.394 39.642 38.47 39.908 C 38.533 40.126 38.665 40.307 38.835 40.433 C 39.006 40.559 39.215 40.63 39.431 40.63 C 39.476 40.63 39.522 40.627 39.569 40.621 C 39.615 40.616 39.662 40.607 39.709 40.595 C 42.188 39.888 43.732 38.955 44.694 38.043 C 45.655 37.131 46.033 36.24 46.177 35.615 C 46.328 34.962 46.296 34.307 46.101 33.702 C 45.905 33.096 45.545 32.54 45.037 32.087 C 44.654 31.745 44.21 31.482 43.726 31.3 C 43.243 31.118 42.72 31.017 42.181 31.001 Z M 25.861 31.068 C 25.769 31.08 24.794 31.083 23.487 31.283 C 22.181 31.484 20.544 31.883 19.13 32.685 C 18.497 33.076 18.251 33.505 18.178 33.871 C 18.105 34.237 18.204 34.539 18.263 34.673 C 18.423 35.043 18.822 35.353 19.406 35.608 C 19.99 35.863 20.759 36.063 21.662 36.209 C 21.3 36.531 21.11 36.858 21.03 37.17 C 20.951 37.482 20.982 37.779 21.064 38.041 C 21.181 38.42 21.457 38.76 21.864 39.06 C 22.271 39.36 22.808 39.619 23.447 39.834 C 23.214 40 23.027 40.179 22.886 40.372 C 22.745 40.566 22.65 40.775 22.603 41.001 C 22.564 41.183 22.544 41.454 22.635 41.763 C 22.726 42.072 22.929 42.42 23.337 42.755 C 23.875 43.195 24.77 43.578 25.9 43.851 C 27.031 44.124 28.396 44.287 29.873 44.287 C 31.045 44.287 32.288 44.184 33.539 43.952 C 34.79 43.72 36.05 43.359 37.255 42.841 C 37.509 42.732 37.696 42.531 37.791 42.294 C 37.887 42.057 37.892 41.783 37.783 41.529 C 37.674 41.275 37.471 41.089 37.233 40.993 C 36.996 40.898 36.722 40.894 36.47 41.005 C 34.031 42.048 31.446 42.349 29.303 42.282 C 27.16 42.216 25.459 41.781 24.787 41.353 C 24.879 41.306 25.001 41.25 25.16 41.19 C 25.319 41.129 25.515 41.064 25.755 40.998 C 25.763 40.996 26.056 40.907 26.499 40.818 C 26.942 40.728 27.535 40.638 28.142 40.634 C 28.168 40.634 28.192 40.628 28.217 40.622 C 28.241 40.615 28.266 40.607 28.291 40.603 C 28.463 40.609 28.635 40.615 28.81 40.619 C 28.984 40.623 29.16 40.626 29.337 40.626 C 30.656 40.626 32.041 40.536 33.426 40.35 C 34.811 40.165 36.195 39.883 37.509 39.498 C 37.775 39.42 37.984 39.242 38.107 39.017 C 38.23 38.793 38.267 38.521 38.189 38.255 C 38.111 37.992 37.933 37.784 37.709 37.661 C 37.484 37.539 37.213 37.502 36.947 37.58 C 33.76 38.512 30.638 38.724 28.15 38.597 C 25.662 38.469 23.806 38.002 23.15 37.572 C 23.25 37.506 23.392 37.423 23.594 37.328 C 23.796 37.233 24.058 37.127 24.396 37.013 C 24.595 36.951 24.998 36.839 25.462 36.742 C 25.926 36.644 26.451 36.56 26.892 36.552 C 26.894 36.552 26.896 36.552 26.899 36.552 C 26.901 36.552 26.904 36.552 26.908 36.552 C 28.9 36.543 31.018 36.414 33.011 36.187 C 35.004 35.961 36.873 35.637 38.365 35.236 C 38.633 35.164 38.845 34.991 38.973 34.769 C 39.101 34.547 39.144 34.277 39.072 34.009 C 39.002 33.744 38.829 33.531 38.607 33.402 C 38.385 33.274 38.115 33.23 37.849 33.302 C 36.113 33.769 34.229 34.087 32.356 34.287 C 30.484 34.487 28.623 34.57 26.931 34.568 C 26.92 34.568 26.909 34.565 26.898 34.562 C 26.887 34.558 26.877 34.554 26.865 34.552 C 26.828 34.554 26.789 34.557 26.749 34.56 C 26.71 34.563 26.67 34.566 26.63 34.568 C 25.371 34.56 24.213 34.504 23.225 34.415 C 22.238 34.326 21.422 34.203 20.845 34.06 C 21.966 33.57 23.211 33.322 24.18 33.197 C 25.149 33.071 25.842 33.068 25.857 33.068 C 26.133 33.068 26.383 32.957 26.564 32.776 C 26.745 32.596 26.857 32.346 26.857 32.068 C 26.857 31.793 26.746 31.544 26.566 31.363 C 26.386 31.182 26.137 31.07 25.861 31.068 Z M 21.271 41.775 C 20.447 41.713 19.481 41.853 18.589 42.088 C 17.697 42.323 16.879 42.653 16.349 42.97 C 15.734 43.339 15.383 43.725 15.193 44.086 C 15.003 44.448 14.976 44.784 15.009 45.056 C 15.093 45.72 15.565 46.181 16.092 46.499 C 16.619 46.817 17.201 46.992 17.505 47.084 C 19.312 47.537 21.169 47.858 23.021 48.066 C 24.873 48.274 26.72 48.369 28.509 48.369 C 32.478 48.371 36.152 47.904 38.926 47.171 C 41.7 46.439 43.574 45.44 43.943 44.38 C 44.06 44.04 44.071 43.639 43.897 43.253 C 43.723 42.866 43.365 42.494 42.744 42.212 C 42.494 42.099 42.221 42.098 41.981 42.189 C 41.742 42.279 41.537 42.46 41.423 42.712 C 41.32 42.942 41.31 43.191 41.377 43.415 C 41.444 43.638 41.589 43.838 41.794 43.97 C 40.778 44.746 37.538 45.719 33.203 46.161 C 28.867 46.602 23.435 46.512 18.037 45.158 C 17.816 45.09 17.637 45.025 17.494 44.966 C 17.35 44.908 17.242 44.855 17.162 44.81 C 17.581 44.474 18.496 44.136 19.393 43.93 C 20.29 43.723 21.169 43.648 21.517 43.837 C 21.741 43.994 22.009 44.045 22.26 44.001 C 22.511 43.957 22.745 43.818 22.904 43.595 C 23.062 43.368 23.114 43.099 23.07 42.846 C 23.026 42.593 22.886 42.357 22.662 42.197 C 22.482 42.072 22.271 41.977 22.037 41.908 C 21.802 41.84 21.544 41.796 21.271 41.775 Z M 43.99 45.443 C 43.705 45.426 43.447 45.518 43.255 45.684 C 43.062 45.85 42.936 46.09 42.912 46.365 C 42.853 47.135 41.135 47.971 38.143 48.533 C 35.15 49.095 30.883 49.382 25.724 49.052 C 25.451 49.047 25.195 49.143 25.003 49.31 C 24.81 49.477 24.682 49.714 24.662 49.99 C 24.646 50.265 24.742 50.521 24.91 50.713 C 25.079 50.905 25.322 51.032 25.599 51.052 C 25.711 51.058 26.183 51.086 26.913 51.113 C 27.642 51.14 28.629 51.166 29.767 51.166 C 32.562 51.166 36.269 51.012 39.316 50.355 C 42.364 49.698 44.752 48.537 44.908 46.521 C 44.93 46.244 44.838 45.985 44.672 45.79 C 44.506 45.595 44.266 45.465 43.99 45.443 Z" style="stroke-width: 0px;"/></svg>