<?xml version="1.0" encoding="UTF-8"?>
<svg version="1.1" xmlns="http://www.w3.org/2000/svg" width="1024" height="1024">
<path d="M0 0 C2.2174126 0.2932359 4.43486085 0.5862024 6.65234375 0.87890625 C21.98447099 2.99356563 37.00454063 6.19275589 52 10 C53.03479492 10.26151855 54.06958984 10.52303711 55.13574219 10.79248047 C117.72169221 26.85706022 179.59741691 59.1111536 226.6484375 103.859375 C229.0046489 106.09547546 231.41816239 108.24288841 233.87890625 110.36328125 C238.29614857 114.20348688 242.43627259 118.28886773 246.5625 122.4375 C247.27857422 123.14970703 247.99464844 123.86191406 248.73242188 124.59570312 C253.3615257 129.23323116 257.73835683 134.02455883 262 139 C262.98503507 140.12946649 263.97068498 141.25839713 264.95703125 142.38671875 C277.47798053 156.81786285 288.97837265 171.97168927 298.89331055 188.32495117 C300.02325811 190.15671304 300.02325811 190.15671304 302 192 C304.35729641 195.84420645 306.53421361 199.79308713 308.73144531 203.73046875 C309.60171608 205.28744278 310.47629451 206.84201453 311.35449219 208.39453125 C338.38803234 256.24743234 355.90973356 308.47603813 363 363 C363.11182617 363.8554541 363.22365234 364.7109082 363.33886719 365.59228516 C365.48788629 382.44208635 366.23737697 399.33730662 366.25 416.3125 C366.25101212 417.56132965 366.25101212 417.56132965 366.25204468 418.83538818 C366.18056429 475.27283184 354.55483832 529.85920562 333 582 C332.38793784 583.51428938 331.77594678 585.02860749 331.1640625 586.54296875 C326.73706393 597.27110181 321.07898036 607.33719554 315.41650391 617.45068359 C314.19477729 619.64945458 313.00128854 621.85917377 311.82421875 624.08203125 C305.43002426 636.02415254 297.65055014 647.05756605 289.93603516 658.17138672 C287.62170029 661.55270876 285.40299005 664.99073226 283.21557617 668.45532227 C282.81443604 668.96506592 282.4132959 669.47480957 282 670 C281.34 670 280.68 670 280 670 C279.72929688 670.58007812 279.45859375 671.16015625 279.1796875 671.7578125 C270.90748179 687.48048164 254.82901595 702.43227915 242.26171875 714.67578125 C239.92046385 716.99534631 239.92046385 716.99534631 237.83203125 719.79296875 C237.22746094 720.52128906 236.62289062 721.24960937 236 722 C235.34 722 234.68 722 234 722 C234 722.66 234 723.32 234 724 C232.77734375 725.26953125 232.77734375 725.26953125 230.9375 726.8125 C228.17867686 729.15023961 225.43114573 731.49434988 222.7265625 733.89453125 C205.05367966 749.51971093 186.02407232 763.53723152 166 776 C164.88753906 776.69480469 163.77507813 777.38960937 162.62890625 778.10546875 C153.57995551 783.67385761 144.25709373 788.7040975 134.85986328 793.65917969 C133.85681152 794.19317383 132.85375977 794.72716797 131.8203125 795.27734375 C130.91555176 795.75421631 130.01079102 796.23108887 129.07861328 796.72241211 C126.86435508 797.83143562 126.86435508 797.83143562 126 800 C124.68 799.67 123.36 799.34 122 799 C121.67 799.66 121.34 800.32 121 801 C119.08007812 802.00219727 119.08007812 802.00219727 116.53125 803.06640625 C115.58056641 803.46496826 114.62988281 803.86353027 113.65039062 804.27416992 C112.61076172 804.69931885 111.57113281 805.12446777 110.5 805.5625 C109.42427734 806.00505127 108.34855469 806.44760254 107.24023438 806.90356445 C72.6875721 820.96878413 37.11113832 831.46581661 0 836 C-0.79744629 836.09764648 -1.59489258 836.19529297 -2.41650391 836.29589844 C-41.29841856 840.90493003 -80.75949854 839.929534 -119.47265625 834.34814453 C-121.95801149 834.00578397 -124.44403028 833.71014404 -126.9375 833.43359375 C-127.69240723 833.34851563 -128.44731445 833.2634375 -129.22509766 833.17578125 C-131.21983648 832.95469732 -133.21535949 832.74072022 -135.2109375 832.52734375 C-136.13132812 832.35332031 -137.05171875 832.17929687 -138 832 C-138.33 831.34 -138.66 830.68 -139 830 C-140.84137236 829.68331187 -140.84137236 829.68331187 -143.10546875 829.6328125 C-150.41346845 829.03364731 -157.30307513 826.90775786 -164.3125 824.875 C-165.74509992 824.4648648 -167.17771728 824.05479054 -168.61035156 823.64477539 C-197.3497766 815.37030595 -224.55365874 804.68044173 -251.0625 790.8125 C-251.81152588 790.42078613 -252.56055176 790.02907227 -253.33227539 789.62548828 C-277.26745815 776.92973468 -300.33690161 761.52206108 -321 744 C-321.99902344 743.17371094 -322.99804688 742.34742188 -324.02734375 741.49609375 C-335.91251372 731.63397018 -347.05805362 721.01675396 -358 710.125 C-358.69383789 709.43583496 -359.38767578 708.74666992 -360.10253906 708.03662109 C-364.10526366 704.02133362 -367.90011333 699.89756904 -371.5546875 695.56201172 C-372.93586824 693.88507592 -372.93586824 693.88507592 -375 693 C-376.01177703 691.34045638 -377.00984176 689.67253235 -378 688 C-379.28379469 686.37276979 -380.59911468 684.77013441 -381.9375 683.1875 C-396.71722391 665.29877268 -409.52981588 646.1541629 -421 626 C-421.41491699 625.27844727 -421.82983398 624.55689453 -422.25732422 623.81347656 C-452.55796015 571.0407427 -475.8212091 504.88879969 -475.0625 443.375 C-475.05798828 442.65699219 -475.05347656 441.93898438 -475.04882812 441.19921875 C-475.03727405 439.46610792 -475.01935158 437.7330413 -475 436 C-475.66 435.67 -476.32 435.34 -477 435 C-476.13599112 371.34020724 -468.22757859 308.55603018 -441.71484375 250.02734375 C-440.38212678 247.0391799 -439.42769735 244.27023971 -439 241 C-438.34 241 -437.68 241 -437 241 C-436.77054688 240.21882812 -436.54109375 239.43765625 -436.3046875 238.6328125 C-419.62979661 192.20272709 -383.09136856 150.09763338 -348.8125 115.6875 C-347.96880859 114.83913574 -347.12511719 113.99077148 -346.25585938 113.11669922 C-341.33112842 108.20454122 -336.29132112 103.51324934 -331 99 C-330.03578125 98.154375 -329.0715625 97.30875 -328.078125 96.4375 C-293.50423612 66.63901014 -244.12683902 29.69357736 -198.24511719 21.50854492 C-197.50422852 21.3407251 -196.76333984 21.17290527 -196 21 C-195.67 20.34 -195.34 19.68 -195 19 C-193.34580196 18.6094648 -191.67571024 18.28440125 -190 18 C-188.49315946 17.56194182 -186.99307894 17.10007326 -185.5 16.6171875 C-162.0820251 9.18479872 -138.34180463 3.40037497 -114 0 C-113.02015137 -0.14953125 -112.04030273 -0.2990625 -111.03076172 -0.453125 C-74.93583001 -5.84268198 -36.07536799 -5.19800397 0 0 Z M-206 68 C-207.31919434 68.5563916 -207.31919434 68.5563916 -208.66503906 69.12402344 C-235.13707806 80.35672622 -260.52739439 94.88495718 -283.19628906 112.59765625 C-284.95924347 113.96831274 -286.73758578 115.31561062 -288.5234375 116.65625 C-294.41439229 121.09330665 -300.07122436 125.69062934 -305.48828125 130.69921875 C-306.85977375 131.95553147 -308.23887999 133.20439118 -309.65209961 134.41357422 C-315.48468866 139.40520629 -320.93852976 144.75238248 -326.36303711 150.17773438 C-327.92608734 151.73860327 -329.49697365 153.29127888 -331.06835938 154.84375 C-337.4973743 161.23693811 -343.37457421 167.87602388 -349 175 C-350.00094322 176.21988518 -351.00446286 177.4376657 -352.01171875 178.65234375 C-364.71319279 194.17068632 -375.85376181 210.71696672 -386 228 C-386.37398926 228.62696777 -386.74797852 229.25393555 -387.13330078 229.89990234 C-430.78744668 303.25686917 -446.02287704 391.03983497 -432 475 C-431.85836426 475.87253418 -431.71672852 476.74506836 -431.57080078 477.64404297 C-423.53392337 526.67343545 -405.62683582 572.62692466 -380.25 615.25 C-379.64833008 616.2613501 -379.04666016 617.2727002 -378.42675781 618.31469727 C-374.29140068 625.14685441 -369.77762112 631.6036454 -365 638 C-364.25492187 639.02351562 -363.50984375 640.04703125 -362.7421875 641.1015625 C-350.89766518 657.10901317 -337.90895693 672.07208735 -323.9375 686.25 C-323.37667725 686.82395508 -322.81585449 687.39791016 -322.23803711 687.98925781 C-320.86409442 689.3659505 -319.43630398 690.68850004 -318 692 C-317.34 692 -316.68 692 -316 692 C-315.6596875 692.84304688 -315.6596875 692.84304688 -315.3125 693.703125 C-313.62658049 696.65348414 -311.53492244 698.48873396 -309 700.75 C-308.50725586 701.18973145 -308.01451172 701.62946289 -307.50683594 702.08251953 C-303.69808996 705.45273446 -299.78577271 708.67023377 -295.78515625 711.80859375 C-293.67245357 713.47090259 -291.57968007 715.149525 -289.49609375 716.84765625 C-281.57806013 723.28620282 -273.53997997 729.39670195 -265 735 C-264.32018066 735.44811035 -263.64036133 735.8962207 -262.93994141 736.35791016 C-217.1336008 766.37736824 -166.04029806 785.5248426 -112 794 C-110.87239258 794.17934082 -109.74478516 794.35868164 -108.58300781 794.54345703 C-36.84565208 805.35451917 40.5643097 792.81556884 106 762 C106.72783691 761.65759277 107.45567383 761.31518555 108.20556641 760.96240234 C112.86102532 758.74756253 117.4401204 756.40455628 122 754 C122.7528125 753.6076416 123.505625 753.2152832 124.28125 752.81103516 C159.61013089 734.30782055 190.52292557 709.4011841 218.75 681.4375 C219.62551514 680.57511719 220.50103027 679.71273437 221.40307617 678.82421875 C227.36974058 672.86489063 232.76992561 666.61132403 238 660 C238.51900879 659.35522705 239.03801758 658.7104541 239.57275391 658.04614258 C283.68956329 603.23650767 327.03314306 523.36614996 325 451.0625 C324.96284989 449.70884302 324.95261838 448.35333748 325 447 C325.33 446.67 325.66 446.34 326 446 C326.24723648 442.91107019 326.43002013 439.84456592 326.5625 436.75 C326.6035083 435.8005249 326.6445166 434.8510498 326.68676758 433.87280273 C329.03642741 374.99509489 318.48637355 319.81940045 295.1875 265.8125 C294.77862045 264.8639212 294.77862045 264.8639212 294.36148071 263.8961792 C291.24507694 256.70469561 287.9054505 249.79048753 284 243 C283.14748384 241.42710356 282.2999713 239.85148664 281.45703125 238.2734375 C276.17119956 228.45291862 270.63627626 218.99341222 264.26806641 209.83740234 C262.95330079 207.9323338 261.66793982 206.00979663 260.38671875 204.08203125 C254.22251618 194.86603211 247.50128447 186.26555559 240.42138672 177.73876953 C237.93949091 174.70268882 235.59554172 171.56255787 233.26953125 168.40625 C232.85058594 167.9421875 232.43164062 167.478125 232 167 C231.34 167 230.68 167 230 167 C229.77570312 166.45859375 229.55140625 165.9171875 229.3203125 165.359375 C227.58706485 162.26209221 225.28906777 159.81991936 222.875 157.25 C222.38217529 156.71995361 221.88935059 156.18990723 221.3815918 155.64379883 C215.55135243 149.40245891 209.5977631 143.40125978 203.11328125 137.8359375 C200.80426107 135.82994955 198.56250055 133.75939065 196.3125 131.6875 C190.47485804 126.43362224 184.28256757 121.69978053 178 117 C177.26507324 116.44586426 176.53014648 115.89172852 175.77294922 115.32080078 C166.10961588 108.04195216 156.4717605 101.07768083 146 95 C144.51396297 94.11909651 143.02831357 93.23753891 141.54296875 92.35546875 C132.21496169 86.84924797 122.79725333 81.67352787 113.03222656 76.98583984 C110.95474616 75.97804721 108.8954086 74.93857531 106.8359375 73.89453125 C76.31974874 58.65514594 43.3019569 49.68221326 10 43 C9.15115234 42.82509033 8.30230469 42.65018066 7.42773438 42.4699707 C-6.79753727 39.71618471 -21.3706585 38.7052928 -35.8125 37.8125 C-36.48882477 37.76989044 -37.16514954 37.72728088 -37.86196899 37.68338013 C-95.69854257 34.09688157 -152.82340765 45.31986302 -206 68 Z " fill="#040404" transform="translate(567,95)"/>
<path d="M0 0 C1.18207031 0.185625 2.36414063 0.37125 3.58203125 0.5625 C4.44183594 0.706875 5.30164063 0.85125 6.1875 1 C5.8575 1.99 5.5275 2.98 5.1875 4 C2.7849988 4.77321656 0.53693302 5.33771914 -1.92578125 5.83203125 C-3.41733398 6.15943111 -4.90886985 6.48690773 -6.40039062 6.81445312 C-8.74455687 7.31245174 -11.08973994 7.80514996 -13.43579102 8.29418945 C-29.37898387 11.40611847 -29.37898387 11.40611847 -42.8125 20 C-43.46017793 22.57061311 -43.46017793 22.57061311 -43.8125 25 C-43.1525 25.33 -42.4925 25.66 -41.8125 26 C-40.78125 26.7425 -39.75 27.485 -38.6875 28.25 C-15.48632811 42.59104408 19.39286662 43.35733666 46 45.625 C46.72361725 45.68762024 47.4472345 45.75024048 48.19277954 45.8147583 C70.74684041 47.74066268 93.30966472 48.20120657 115.9375 48.1875 C117.16910858 48.1882251 118.40071716 48.1889502 119.66964722 48.18969727 C140.23350305 48.18836611 160.68393325 47.56837374 181.1875 46 C181.1875 45.34 181.1875 44.68 181.1875 44 C181.8475 44.33 182.5075 44.66 183.1875 45 C189.42233394 45.45356374 195.6284479 44.73809654 201.8125 44 C207.31109258 43.35000663 212.64740411 42.88117757 218.1875 43 C218.1875 42.34 218.1875 41.68 218.1875 41 C219.239375 41.04382813 220.29125 41.08765625 221.375 41.1328125 C227.41769697 41.12486158 233.26080603 39.96105192 239.1875 38.875 C240.40542236 38.65416748 241.62334473 38.43333496 242.87817383 38.20581055 C251.26936877 36.64201425 259.58667302 34.85171163 267.875 32.8125 C269.41510742 32.43810791 269.41510742 32.43810791 270.98632812 32.05615234 C271.92283203 31.81719238 272.85933594 31.57823242 273.82421875 31.33203125 C274.64623779 31.12296143 275.46825684 30.9138916 276.31518555 30.69848633 C278.38772244 30.16763596 278.38772244 30.16763596 279.1875 28 C280.19554687 27.86335937 281.20359375 27.72671875 282.2421875 27.5859375 C286.72464542 26.92022593 290.22454439 25.49510446 294.3125 23.625 C295.34697266 23.16867187 295.34697266 23.16867187 296.40234375 22.703125 C303.45548269 19.81567974 303.45548269 19.81567974 308.6875 14.625 C309.48449634 11.90223534 309.48449634 11.90223534 307.8125 9.3125 C307.008125 8.1678125 307.008125 8.1678125 306.1875 7 C306.1875 6.34 306.1875 5.68 306.1875 5 C308.39963217 5.46208983 310.60391692 5.94305818 312.8046875 6.45703125 C314.67028707 6.88214328 316.55210912 7.23618235 318.4375 7.5625 C322.78313354 9.83408117 324.51440828 13.49258396 326.1875 18 C326.36192559 22.36063966 324.80412167 25.62459395 322.1328125 29.08203125 C313.44439941 37.64831805 301.40802656 42.68711795 290.1875 47 C289.46900879 47.28053223 288.75051758 47.56106445 288.01025391 47.85009766 C260.89974872 58.21813788 231.5114803 62.71263679 202.87255859 66.55444336 C200.22558771 66.85813852 200.22558771 66.85813852 198.1875 68 C195.91982828 68.18872301 193.64771222 68.32467032 191.375 68.4375 C185.98209678 68.72047914 180.62270181 69.13537425 175.25248718 69.70352173 C162.94039065 70.99323777 150.63364345 71.57032907 138.26538086 72.00537109 C134.86086868 72.12549862 131.45683179 72.25540704 128.05273438 72.38671875 C-55.61627618 79.29669584 -55.61627618 79.29669584 -96.8125 43.25 C-98.49535824 39.46356897 -98.62390469 36.05058375 -97.8125 32 C-96.19376645 28.67599683 -94.31473033 25.72749195 -91.8125 23 C-90.8225 22.67 -89.8325 22.34 -88.8125 22 C-88.8125 21.34 -88.8125 20.68 -88.8125 20 C-81.61558631 15.67060661 -74.36519312 11.60822657 -66.6875 8.1875 C-65.77677734 7.77165649 -65.77677734 7.77165649 -64.84765625 7.34741211 C-54.97768796 3.06826138 -44.49689132 1.47159726 -33.875 0.3125 C-32.79798828 0.18294922 -31.72097656 0.05339844 -30.61132812 -0.08007812 C-20.36642965 -1.23883684 -10.20543638 -1.64936346 0 0 Z " fill="#080807" transform="translate(360.8125,663)"/>
<path d="M0 0 C7.60849108 3.12452443 10.81482164 9.31811868 15 16 C15.43699219 16.69480469 15.87398437 17.38960937 16.32421875 18.10546875 C24.96875935 33.58363829 25.59667864 54.5728998 21.5 71.5 C15.59661167 91.43941653 3.2956703 107.32093781 -11 122 C-11.53560547 122.55606934 -12.07121094 123.11213867 -12.62304688 123.68505859 C-18.92167834 130.21024606 -25.3375298 136.31185529 -32.453125 141.95703125 C-34.87680069 143.90117601 -37.19380609 145.91870089 -39.5 148 C-42.69412535 150.87641484 -45.96491936 153.61623691 -49.3125 156.3125 C-55.44833878 161.29679481 -61.24132741 166.59009209 -67 172 C-68.06347656 172.96486328 -68.06347656 172.96486328 -69.1484375 173.94921875 C-84.9516234 188.81711405 -96.64372649 209.46688922 -97.41967773 231.41308594 C-97.69491004 264.60685605 -79.0795107 292.58164576 -57.83251953 316.48535156 C-55.45192787 319.181248 -53.38000317 321.65552172 -52 325 C-56.16589314 325 -58.7794719 322.92066675 -62.1875 320.75 C-62.89003906 320.30688477 -63.59257812 319.86376953 -64.31640625 319.40722656 C-71.52635467 314.78554699 -78.34636037 309.67603964 -85.1171875 304.43945312 C-86.42447775 303.43999989 -87.74311421 302.45528326 -89.0703125 301.48242188 C-93.04890954 298.5655291 -96.58306606 295.58153707 -100 292 C-100.89976562 291.13503906 -101.79953125 290.27007812 -102.7265625 289.37890625 C-113.98392949 278.50258759 -126.55743592 265.14526074 -132.02734375 250.19140625 C-132.34832031 249.46824219 -132.66929687 248.74507812 -133 248 C-133.99 247.67 -134.98 247.34 -136 247 C-135.80535156 246.33226562 -135.61070312 245.66453125 -135.41015625 244.9765625 C-134.89306326 241.22394482 -135.62689877 238.01838002 -136.4375 234.375 C-140.15022031 215.93459897 -136.56418479 198.43867412 -126.6875 182.375 C-115.98599343 166.34560661 -102.41277073 153.41911684 -87 142 C-85.89881836 141.18015625 -85.89881836 141.18015625 -84.77539062 140.34375 C-77.82902025 135.17864804 -70.84677254 130.06306634 -63.83984375 124.98046875 C-45.68164785 111.79164529 -25.71839142 96.7631214 -13 78 C-12.44828125 77.21496094 -11.8965625 76.42992187 -11.328125 75.62109375 C0.97118832 57.36259986 7.49029652 36.0451638 3.35546875 14.015625 C2.44165865 9.13854191 2.44165865 9.13854191 0 5 C-0.04063832 3.33382885 -0.042721 1.66611905 0 0 Z " fill="#050505" transform="translate(536,160)"/>
<path d="M0 0 C0.33 0.99 0.66 1.98 1 3 C0.34 3 -0.32 3 -1 3 C-1 3.66 -1 4.32 -1 5 C-2.52367187 5.74443359 -2.52367187 5.74443359 -4.078125 6.50390625 C-19.04620609 13.86555707 -33.58879171 21.8736852 -46.2890625 32.8046875 C-49 35 -49 35 -51 35 C-51 35.66 -51 36.32 -51 37 C-52.3984375 38.375 -52.3984375 38.375 -54.375 40 C-70.11607379 53.45652857 -82.55330506 68.80329015 -84.25 90.14453125 C-84.57377926 105.90853419 -79.41250161 116.27701201 -69.59643555 128.17919922 C-62.38902696 137.03290236 -56.35467567 146.68558384 -54 158 C-53.5978125 159.8871875 -53.5978125 159.8871875 -53.1875 161.8125 C-51.83460185 175.76426213 -57.58749034 188.33140821 -66 199 C-68.4375 201.6875 -68.4375 201.6875 -71 204 C-71.56074219 204.52980469 -72.12148438 205.05960938 -72.69921875 205.60546875 C-80.59360918 212.85934069 -92.70108746 222.62068682 -103.8203125 223.12890625 C-104.53960937 223.08636719 -105.25890625 223.04382813 -106 223 C-105.61328125 222.32195312 -105.2265625 221.64390625 -104.828125 220.9453125 C-96.44072954 205.95595725 -92.12019203 192.23625191 -96.8984375 175.1328125 C-100.50523742 164.87517586 -106.15820105 154.49275478 -113 146 C-113.99 145.67 -114.98 145.34 -116 145 C-116.12761719 143.99839844 -116.12761719 143.99839844 -116.2578125 142.9765625 C-117.22658882 139.09125957 -119.0025152 135.89431867 -120.875 132.375 C-128.90023124 116.71505972 -131.40342464 100.04250687 -126 83 C-120.01632662 67.22925066 -109.51956043 53.62641734 -96.4375 43.0625 C-95.2309375 42.0415625 -95.2309375 42.0415625 -94 41 C-94 40.34 -94 39.68 -94 39 C-93.43297363 38.89961426 -92.86594727 38.79922852 -92.28173828 38.69580078 C-89.54169019 37.8602415 -87.78972815 36.57588478 -85.4921875 34.8671875 C-79.92108829 30.86621827 -74.10591688 27.47183432 -68.125 24.125 C-67.10664062 23.54492188 -66.08828125 22.96484375 -65.0390625 22.3671875 C-57.49698186 18.11980524 -57.49698186 18.11980524 -54.74560547 17.45654297 C-54.16955566 17.30588379 -53.59350586 17.15522461 -53 17 C-52.67 16.34 -52.34 15.68 -52 15 C-50.25219727 14.26928711 -50.25219727 14.26928711 -48.00390625 13.58984375 C-44.80442675 12.58317363 -41.65721208 11.52286091 -38.52734375 10.31640625 C-25.90045349 5.47930035 -13.49653982 1.51780271 0 0 Z " fill="#050505" transform="translate(613,289)"/>
<path d="M0 0 C-0.495 0.556875 -0.99 1.11375 -1.5 1.6875 C-3.29268598 4.45122422 -3.58006212 5.76822531 -3 9 C7.09984335 18.07825 25.23662115 17.67381838 38 19 C38.72479553 19.08365814 39.44959106 19.16731628 40.1963501 19.25350952 C46.50557763 19.94822417 52.74120741 20.17451892 59.0859375 20.203125 C60.65114388 20.21344254 60.65114388 20.21344254 62.24797058 20.22396851 C65.62368272 20.24112163 68.9992465 20.24743137 72.375 20.25 C74.10277176 20.25250763 74.10277176 20.25250763 75.865448 20.25506592 C90.81490816 20.25636306 105.66726426 19.93965297 120.5625 18.625 C121.28532166 18.56187622 122.00814331 18.49875244 122.75286865 18.43371582 C130.91462092 17.69932983 138.96660947 16.6397252 147 15 C147 14.67 147 14.34 147 14 C148.94519531 14.04833984 148.94519531 14.04833984 150.9296875 14.09765625 C156.58711705 14.09876338 161.89701788 13.08145229 167.42578125 11.97851562 C173.40733515 10.87177372 178.37377252 10.48542224 183.8515625 13.64453125 C191.6174476 19.71504707 198.86765397 26.2012637 206 33 C205 35 205 35 203.00415039 35.7902832 C202.12750732 36.04124756 201.25086426 36.29221191 200.34765625 36.55078125 C199.35773682 36.8346167 198.36781738 37.11845215 197.34790039 37.41088867 C196.26371826 37.70842041 195.17953613 38.00595215 194.0625 38.3125 C192.93513428 38.62227783 191.80776855 38.93205566 190.64624023 39.2512207 C172.8477454 44.0232362 154.90024266 47.05944027 136.625 49.25 C135.94100128 49.33317474 135.25700256 49.41634949 134.55227661 49.50204468 C116.0655089 51.717094 97.5425778 52.21004023 78.9375 52.1875 C78.00356415 52.18689575 77.0696283 52.1862915 76.10739136 52.18566895 C-12.63424438 52.03077555 -12.63424438 52.03077555 -34.51171875 31.74609375 C-37.16607541 28.63192728 -38.02813652 26.75968609 -37.875 22.625 C-36.1767592 15.58943096 -31.79919573 11.02924371 -26 7 C-6.73856265 -4.16565691 -6.73856265 -4.16565691 0 0 Z " fill="#060606" transform="translate(389,562)"/>
<path d="M0 0 C1.16692383 -0.01836914 1.16692383 -0.01836914 2.35742188 -0.03710938 C7.67063171 -0.05040348 12.20684681 0.71123685 17.3125 2.1875 C15.64248354 5.05342585 14.7091758 6.0590329 11.50366211 7.09716797 C9.81382202 7.38551514 9.81382202 7.38551514 8.08984375 7.6796875 C6.836875 7.90672363 5.58390625 8.13375977 4.29296875 8.36767578 C3.63216309 8.48081116 2.97135742 8.59394653 2.29052734 8.71051025 C-1.12835707 9.30026577 -4.53519679 9.95079735 -7.94140625 10.609375 C-8.94870285 10.8040184 -8.94870285 10.8040184 -9.97634888 11.00259399 C-15.50491473 12.09744938 -20.85077544 13.50871603 -26.1875 15.3125 C-26.87851807 15.54179199 -27.56953613 15.77108398 -28.28149414 16.00732422 C-32.94546466 17.66366561 -38.38662035 19.66226303 -40.75 24.25 C-40.88024856 26.26254919 -40.88024856 26.26254919 -39.45556641 27.70947266 C-33.02701529 33.08346444 -22.25873832 33.04141289 -14.3125 33.8125 C-13.09183838 33.93657227 -11.87117676 34.06064453 -10.61352539 34.18847656 C-3.12598271 34.92423248 4.36192025 35.53674617 11.875 35.9375 C13.10452393 36.00445068 13.10452393 36.00445068 14.35888672 36.07275391 C17.65552067 36.21670243 20.1539314 36.2403562 23.3125 35.1875 C23.9725 35.5175 24.6325 35.8475 25.3125 36.1875 C26.7869003 36.28216758 28.26548428 36.31544229 29.74291992 36.31689453 C30.66115036 36.32004669 31.5793808 36.32319885 32.5254364 36.32644653 C33.52122208 36.3244223 34.51700775 36.32239807 35.54296875 36.3203125 C37.0786425 36.32174759 37.0786425 36.32174759 38.64533997 36.32321167 C40.81670188 36.32389328 42.98806581 36.32204031 45.15942383 36.31787109 C48.46896003 36.31254991 51.77835882 36.31780254 55.08789062 36.32421875 C57.19791696 36.32355743 59.30794322 36.32227515 61.41796875 36.3203125 C62.89646553 36.32334885 62.89646553 36.32334885 64.40483093 36.32644653 C69.48064067 36.309316 74.28851862 36.00062296 79.3125 35.1875 C81.9038182 35.16820295 84.47367769 35.1902071 87.0625 35.25 C95.34517904 35.34932772 103.55424358 34.86133825 111.8125 34.25 C113.01229492 34.16306885 114.21208984 34.0761377 115.44824219 33.98657227 C121.05574649 33.78704809 121.05574649 33.78704809 126.3125 32.1875 C127.89046892 32.16035688 129.46945587 32.18466027 131.046875 32.234375 C137.98474047 32.29305571 144.702091 31.40067504 151.5625 30.4375 C152.88825906 30.25516534 154.21402412 30.07287431 155.53979492 29.890625 C171.08222732 27.72970189 186.63590428 25.41503454 201.82543945 21.40625 C206.07491805 20.31908488 209.93388567 20.02950876 214.3125 20.1875 C213.9825 21.1775 213.6525 22.1675 213.3125 23.1875 C212.6525 23.1875 211.9925 23.1875 211.3125 23.1875 C211.05726563 23.77917969 210.80203125 24.37085938 210.5390625 24.98046875 C204.13911673 36.49629474 185.80256956 40.97548789 174 44.375 C170.44738927 45.35330592 166.8844915 46.28274094 163.3125 47.1875 C162.56758301 47.37940918 161.82266602 47.57131836 161.05517578 47.76904297 C150.27642429 50.48029277 139.32793746 51.95188294 128.3125 53.3125 C127.03922852 53.47121582 125.76595703 53.62993164 124.45410156 53.79345703 C101.84116381 56.44903913 79.19345235 57.55104709 56.4375 57.875 C55.20336365 57.89429565 53.96922729 57.91359131 52.69769287 57.93347168 C-63.12660494 59.69711367 -63.12660494 59.69711367 -90.5 39.875 C-92.50877104 37.02043062 -92.62911613 34.63214862 -92.6875 31.1875 C-88.09343093 21.40013546 -77.18682257 16.98184697 -67.6875 13.1875 C-67.0275 13.1875 -66.3675 13.1875 -65.6875 13.1875 C-65.3575 12.5275 -65.0275 11.8675 -64.6875 11.1875 C-62.43091035 10.45380009 -60.24196495 9.85446733 -57.9375 9.3125 C-56.89057983 9.05968262 -56.89057983 9.05968262 -55.82250977 8.80175781 C-49.78476993 7.37801705 -43.71229327 6.12942507 -37.625 4.9375 C-36.30580566 4.67477295 -36.30580566 4.67477295 -34.95996094 4.40673828 C-30.11055809 3.48740704 -25.62250321 3.00001005 -20.6875 3.1875 C-20.3575 2.5275 -20.0275 1.8675 -19.6875 1.1875 C-17.70182292 1.22005208 -15.71614583 1.25260417 -13.73046875 1.28515625 C-9.13827412 1.06564408 -4.74114107 0.00383277 0 0 Z " fill="#080808" transform="translate(403.6875,487.8125)"/>
<path d="M0 0 C0 0.66 0 1.32 0 2 C-0.66 2 -1.32 2 -2 2 C-2.33 3.98 -2.66 5.96 -3 8 C16.88433851 24.96017108 63.28146772 18.39591717 87.51953125 16.66796875 C93.91377703 16.15364351 100.22723006 15.34065497 106.5690918 14.39575195 C110.07733761 13.99107918 113.47178753 13.93335567 117 14 C117.33 13.34 117.66 12.68 118 12 C121.28715737 11.29608347 124.65012063 11.21551671 128 11 C129.15048828 10.84917969 129.15048828 10.84917969 130.32421875 10.6953125 C145.72471454 9.3879699 164.4404885 22.87406987 176 32 C175.67 32.99 175.34 33.98 175 35 C172.86816406 35.97973633 172.86816406 35.97973633 170.015625 36.83203125 C168.94989258 37.15276611 167.88416016 37.47350098 166.78613281 37.80395508 C165.61920898 38.1367749 164.45228516 38.46959473 163.25 38.8125 C162.0444043 39.16143311 160.83880859 39.51036621 159.59667969 39.86987305 C138.76508891 45.74706959 117.53035747 49.7866557 96 52 C95.1747583 52.0942627 94.3495166 52.18852539 93.49926758 52.28564453 C82.64270781 53.38218747 71.71255663 53.24291893 60.8125 53.25 C59.20420319 53.25151062 59.20420319 53.25151062 57.56341553 53.25305176 C41.85624362 53.24306272 26.48299004 52.9112533 11 50 C10.15969238 49.8448291 9.31938477 49.6896582 8.45361328 49.52978516 C-6.32841182 46.71128824 -22.29853907 43.05594299 -34 33 C-34.495 31.515 -34.495 31.515 -35 30 C-35.33 29.34 -35.66 28.68 -36 28 C-36.41503281 23.9374673 -36.46204623 20.21287135 -35 16.375 C-26.64195361 6.44981991 -13.33812313 -0.8336327 0 0 Z " fill="#050505" transform="translate(411,628)"/>
<path d="M0 0 C0.33 0 0.66 0 1 0 C0.34814116 11.73345916 -5.65064159 20.05569654 -14 28 C-22.08548905 34.97069103 -31.33626965 39.64276249 -41 44 C-41.66821777 44.30292969 -42.33643555 44.60585938 -43.02490234 44.91796875 C-76.31766667 59.67537118 -115.96792107 64.39564882 -152 67 C-152.70666809 67.05113953 -153.41333618 67.10227905 -154.14141846 67.15496826 C-190.79677175 69.75896683 -227.36212841 69.8283126 -264 67 C-265.26473145 66.90879883 -266.52946289 66.81759766 -267.83251953 66.72363281 C-301.03803605 64.26906863 -336.54647557 60.14970845 -367 46 C-366.67 44.68 -366.34 43.36 -366 42 C-364.19982422 42.22719727 -364.19982422 42.22719727 -362.36328125 42.45898438 C-357.88358798 43.02303169 -353.40310506 43.58057918 -348.92236328 44.13623047 C-346.98822467 44.37698791 -345.05430055 44.61947534 -343.12060547 44.86376953 C-340.3309589 45.21588875 -337.54058399 45.56164853 -334.75 45.90625 C-333.89446533 46.0156189 -333.03893066 46.12498779 -332.1574707 46.2376709 C-328.27229353 46.71182203 -324.49469601 47.05361155 -320.578125 47.00585938 C-317 47 -317 47 -314 48 C-311.22444555 48.29394085 -308.46173364 48.54323316 -305.6796875 48.75390625 C-304.84034164 48.81917007 -304.00099579 48.8844339 -303.13621521 48.95167542 C-300.38291527 49.16172462 -297.62909927 49.36321812 -294.875 49.5625 C-293.47089371 49.6657962 -293.47089371 49.6657962 -292.03842163 49.7711792 C-277.74677019 50.80553883 -263.54666523 51.28874461 -249.22021484 51.06469727 C-247.96805176 51.04592529 -246.71588867 51.02715332 -245.42578125 51.0078125 C-244.34723877 50.98348145 -243.26869629 50.95915039 -242.1574707 50.93408203 C-238.70689692 51.00611906 -235.41276129 51.50809569 -232 52 C-231.08992187 51.84660156 -230.17984375 51.69320312 -229.2421875 51.53515625 C-224.50321448 50.75294022 -219.9041317 51.15580321 -215.125 51.4375 C-214.15046875 51.48970703 -213.1759375 51.54191406 -212.171875 51.59570312 C-209.78086598 51.72463008 -207.39035574 51.85955944 -205 52 C-204.67 51.34 -204.34 50.68 -204 50 C-203.32670654 50.17128418 -202.65341309 50.34256836 -201.9597168 50.51904297 C-198.41477601 51.0950995 -195.22955633 50.92455748 -191.64453125 50.6953125 C-190.94285324 50.65187714 -190.24117523 50.60844177 -189.51823425 50.56369019 C-188.03629546 50.47078826 -186.554548 50.37478851 -185.07299805 50.27587891 C-182.83743955 50.12666461 -180.60147298 49.98626506 -178.36523438 49.84765625 C-171.52666135 49.41572229 -164.70102261 48.93843011 -157.8894043 48.17919922 C-156 48 -156 48 -153 48 C-136.29942363 46.27838601 -119.43617412 44.45097477 -103 41 C-102.0193457 40.79648926 -101.03869141 40.59297852 -100.02832031 40.38330078 C-45.86326224 29.19481162 -45.86326224 29.19481162 0 0 Z " fill="#0B0B0B" transform="translate(711,697)"/>
<path d="M0 0 C7.38652434 7.75453623 9.96098017 16.74981332 10.29296875 27.453125 C9.26166929 46.62020274 -1.38419116 62.4858834 -14.9296875 75.3671875 C-38.72986636 96.3046875 -38.72986636 96.3046875 -49.8046875 96.3046875 C-50.1346875 96.9646875 -50.4646875 97.6246875 -50.8046875 98.3046875 C-52.6328125 99.015625 -52.6328125 99.015625 -55.0546875 99.6796875 C-57.93271343 100.48521093 -60.78619249 101.29850539 -63.62109375 102.24609375 C-70.58300253 104.56067881 -77.54278026 106.16777121 -84.7421875 107.5546875 C-85.64235596 107.72991943 -86.54252441 107.90515137 -87.4699707 108.08569336 C-91.97614497 108.92172999 -96.19865747 109.51715676 -100.8046875 109.3046875 C-99.33006268 104.65802798 -95.45508852 102.98518342 -91.4921875 100.6796875 C-79.93919327 93.70500583 -69.60265797 85.60522255 -59.8046875 76.3046875 C-59.31581055 75.84304199 -58.82693359 75.38139648 -58.32324219 74.90576172 C-45.8486668 63.05295984 -31.677912 46.40954215 -30.8046875 28.3046875 C-30.63918899 19.24955477 -32.18664386 13.12725988 -38.48046875 6.5546875 C-42.03268707 3.27814022 -45.11055093 1.64586938 -49.8046875 0.3046875 C-50.2996875 -0.6853125 -50.2996875 -0.6853125 -50.8046875 -1.6953125 C-53.35124756 -2.44234378 -55.8417086 -3.06824419 -58.4296875 -3.6328125 C-59.18499756 -3.80393555 -59.94030762 -3.97505859 -60.71850586 -4.15136719 C-68.05419163 -5.79529552 -75.42239349 -7.27688046 -82.8046875 -8.6953125 C-82.8046875 -9.6853125 -82.8046875 -10.6753125 -82.8046875 -11.6953125 C-55.61742271 -20.83165271 -21.91502606 -20.95323809 0 0 Z " fill="#070707" transform="translate(706.8046875,497.6953125)"/>
<path d="M0 0 C0.66 0.33 1.32 0.66 2 1 C-6.91 9.91 -15.82 18.82 -25 28 C-25 21.08283851 -15.45742601 14.39586203 -10.8125 9.6875 C-7.34540258 6.25285591 -3.82950004 3.0232895 0 0 Z " fill="#2D2C2C" transform="translate(441,308)"/>
<path d="M0 0 C0.99 0.33 1.98 0.66 3 1 C-1.52991796 6.43733055 -6.34294216 11.46458931 -11.375 16.4375 C-12.11105469 17.16904297 -12.84710938 17.90058594 -13.60546875 18.65429688 C-15.40136074 20.43852723 -17.19955985 22.22036124 -19 24 C-19 18.48278106 -13.70505743 14.76472893 -10 11 C-7.32885168 8.55421827 -4.6273317 6.1618048 -1.87109375 3.8125 C-1.25363281 3.214375 -0.63617187 2.61625 0 2 C0 1.34 0 0.68 0 0 Z " fill="#2E2E2C" transform="translate(519,328)"/>
<path d="M0 0 C0.77794922 -0.00773437 1.55589844 -0.01546875 2.35742188 -0.0234375 C7.65569002 -0.00576188 12.22116872 0.78369659 17.3125 2.25 C16.3225 3.57 15.3325 4.89 14.3125 6.25 C13.9825 5.26 13.6525 4.27 13.3125 3.25 C5.0625 2.92 -3.1875 2.59 -11.6875 2.25 C-7.79323131 -0.34617913 -4.51180209 -0.04376849 0 0 Z " fill="#525150" transform="translate(403.6875,487.75)"/>
<path d="M0 0 C5.61 0.66 11.22 1.32 17 2 C17 2.33 17 2.66 17 3 C13.37 3 9.74 3 6 3 C6.33 3.99 6.66 4.98 7 6 C4.69 5.34 2.38 4.68 0 4 C0 2.68 0 1.36 0 0 Z " fill="#3C3B3A" transform="translate(344,739)"/>
<path d="M0 0 C0.70189453 0.01353516 1.40378906 0.02707031 2.12695312 0.04101562 C3.85579829 0.07629818 5.58424765 0.13010417 7.3125 0.1875 C7.3125 0.5175 7.3125 0.8475 7.3125 1.1875 C1.19269467 2.59204548 -4.40489294 3.42018915 -10.6875 3.1875 C-7.97885416 -0.76650025 -4.33266512 -0.15777212 0 0 Z " fill="#484847" transform="translate(543.6875,575.8125)"/>
<path d="M0 0 C0 0.66 0 1.32 0 2 C-0.66 2 -1.32 2 -2 2 C-2.66 3.98 -3.32 5.96 -4 8 C-4.33 8 -4.66 8 -5 8 C-5 6.02 -5 4.04 -5 2 C-6.32 1.67 -7.64 1.34 -9 1 C-5.92677456 0.08941469 -3.19902639 -0.08886184 0 0 Z " fill="#3A3939" transform="translate(411,628)"/>
<path d="M0 0 C-1.55603771 3.81936528 -3.95604931 6.26044438 -7 9 C-7.66 9 -8.32 9 -9 9 C-7.45665977 5.21180126 -4.44676575 0 0 0 Z " fill="#2D2D2C" transform="translate(363,570)"/>
<path d="M0 0 C0.66 0.33 1.32 0.66 2 1 C0.71451591 2.33929505 -0.57858155 3.67128643 -1.875 5 C-2.59429687 5.7425 -3.31359375 6.485 -4.0546875 7.25 C-6 9 -6 9 -8 9 C-6.4169423 4.7257442 -3.49431596 2.73468206 0 0 Z " fill="#323232" transform="translate(321,508)"/>
<path d="M0 0 C1.98 0.99 3.96 1.98 6 3 C5.67 3.66 5.34 4.32 5 5 C4.34 4.67 3.68 4.34 3 4 C2.67 5.32 2.34 6.64 2 8 C-0.1519437 4.77208445 -0.20086443 3.71599191 0 0 Z " fill="#413F3F" transform="translate(536,160)"/>
<path d="M0 0 C-0.99 0.66 -1.98 1.32 -3 2 C-3 1.34 -3 0.68 -3 0 C-5.64 0.33 -8.28 0.66 -11 1 C-6.68398307 -1.87734462 -4.56105874 -2.76921423 0 0 Z " fill="#4A4A48" transform="translate(389,562)"/>
<path d="M0 0 C1.65 0.33 3.3 0.66 5 1 C5 1.33 5 1.66 5 2 C3.02 2 1.04 2 -1 2 C-0.67 1.34 -0.34 0.68 0 0 Z " fill="#31312F" transform="translate(395,520)"/>
<path d="M0 0 C1.32 0.33 2.64 0.66 4 1 C3.34 1.66 2.68 2.32 2 3 C1.34 2.01 0.68 1.02 0 0 Z " fill="#3A3938" transform="translate(659,680)"/>
<path d="M0 0 C1.98 0 3.96 0 6 0 C6 0.33 6 0.66 6 1 C4.02 1 2.04 1 0 1 C0 0.67 0 0.34 0 0 Z " fill="#302F2F" transform="translate(548,744)"/>
<path d="M0 0 C1.65 0 3.3 0 5 0 C3.02 0.99 3.02 0.99 1 2 C0.67 1.34 0.34 0.68 0 0 Z " fill="#312F2E" transform="translate(400,734)"/>
<path d="M0 0 C1.98 0 3.96 0 6 0 C6 0.33 6 0.66 6 1 C4.02 1 2.04 1 0 1 C0 0.67 0 0.34 0 0 Z " fill="#2F2E2E" transform="translate(584,727)"/>
<path d="M0 0 C0.99 0 1.98 0 3 0 C3 0.66 3 1.32 3 2 C1.68 1.67 0.36 1.34 -1 1 C-0.67 0.67 -0.34 0.34 0 0 Z " fill="#2E2E2D" transform="translate(529,576)"/>
<path d="M0 0 C2.475 0.495 2.475 0.495 5 1 C4.01 1.495 4.01 1.495 3 2 C2.01 1.34 1.02 0.68 0 0 Z " fill="#343332" transform="translate(353,542)"/>
<path d="M0 0 C1.65 0 3.3 0 5 0 C3.02 0.99 3.02 0.99 1 2 C0.67 1.34 0.34 0.68 0 0 Z " fill="#2E2D2C" transform="translate(537,312)"/>
<path d="M0 0 C1.65 0 3.3 0 5 0 C5 0.33 5 0.66 5 1 C3.35 1 1.7 1 0 1 C0 0.67 0 0.34 0 0 Z " fill="#323130" transform="translate(467,888)"/>
<path d="M0 0 C0.66 0.66 1.32 1.32 2 2 C0.68 1.67 -0.64 1.34 -2 1 C-1.34 0.67 -0.68 0.34 0 0 Z " fill="#31302E" transform="translate(540,744)"/>
<path d="M0 0 C1.485 0.99 1.485 0.99 3 2 C1.68 1.67 0.36 1.34 -1 1 C-0.67 0.67 -0.34 0.34 0 0 Z " fill="#2F2F2D" transform="translate(394,733)"/>
<path d="M0 0 C1.65 0 3.3 0 5 0 C5 0.33 5 0.66 5 1 C3.35 1 1.7 1 0 1 C0 0.67 0 0.34 0 0 Z " fill="#323130" transform="translate(361,543)"/>
<path d="M0 0 C1.485 0.99 1.485 0.99 3 2 C1.68 1.67 0.36 1.34 -1 1 C-0.67 0.67 -0.34 0.34 0 0 Z " fill="#333132" transform="translate(493,521)"/>
<path d="M0 0 C1.65 0 3.3 0 5 0 C5 0.33 5 0.66 5 1 C3.35 1 1.7 1 0 1 C0 0.67 0 0.34 0 0 Z " fill="#333232" transform="translate(520,520)"/>
<path d="M0 0 C0.33 0 0.66 0 1 0 C1 1.65 1 3.3 1 5 C0.67 5 0.34 5 0 5 C0 3.35 0 1.7 0 0 Z " fill="#292828" transform="translate(439,388)"/>
<path d="M0 0 C0.99 0.33 1.98 0.66 3 1 C2.01 1 1.02 1 0 1 C0 0.67 0 0.34 0 0 Z " fill="#31302F" transform="translate(423,926)"/>
<path d="M0 0 C0.99 0.33 1.98 0.66 3 1 C2.01 1.33 1.02 1.66 0 2 C0 1.34 0 0.68 0 0 Z " fill="#2E2D2D" transform="translate(684,848)"/>
<path d="M0 0 C0.66 0.66 1.32 1.32 2 2 C1.01 1.67 0.02 1.34 -1 1 C-0.67 0.67 -0.34 0.34 0 0 Z " fill="#303130" transform="translate(604,736)"/>
<path d="M0 0 C4 1 4 1 4 1 Z " fill="#322F2F" transform="translate(574,704)"/>
<path d="M0 0 C4 1 4 1 4 1 Z " fill="#313030" transform="translate(555,640)"/>
<path d="M0 0 C4 1 4 1 4 1 Z " fill="#32302F" transform="translate(436,614)"/>
<path d="M0 0 C0 3 0 3 0 3 Z " fill="#322F30" transform="translate(365,511)"/>
<path d="M0 0 C1 4 1 4 1 4 Z " fill="#2D2B2A" transform="translate(880,416)"/>
<path d="M0 0 C0.33 0.99 0.66 1.98 1 3 C0.34 2.67 -0.32 2.34 -1 2 C-0.67 1.34 -0.34 0.68 0 0 Z " fill="#2D2C2A" transform="translate(865,372)"/>
<path d="M0 0 C0.99 0.33 1.98 0.66 3 1 C2.01 1 1.02 1 0 1 C0 0.67 0 0.34 0 0 Z " fill="#272626" transform="translate(508,336)"/>
<path d="M0 0 C3 1 3 1 3 1 Z " fill="#343231" transform="translate(471,933)"/>
<path d="M0 0 C3 1 3 1 3 1 Z " fill="#2F2F2D" transform="translate(474,889)"/>
<path d="M0 0 C3 1 3 1 3 1 Z " fill="#373535" transform="translate(555,888)"/>
<path d="M0 0 C3 1 3 1 3 1 Z " fill="#313030" transform="translate(405,876)"/>
<path d="M0 0 C3 1 3 1 3 1 Z " fill="#2C2A2A" transform="translate(308,832)"/>
<path d="M0 0 C0.99 0.495 0.99 0.495 2 1 C1.01 1.495 1.01 1.495 0 2 C0 1.34 0 0.68 0 0 Z " fill="#252523" transform="translate(233,830)"/>
<path d="M0 0 C0.66 0 1.32 0 2 0 C1.67 0.66 1.34 1.32 1 2 C0.67 1.34 0.34 0.68 0 0 Z " fill="#2D2C2A" transform="translate(722,825)"/>
<path d="M0 0 C0.66 0.66 1.32 1.32 2 2 C1.34 2 0.68 2 0 2 C0 1.34 0 0.68 0 0 Z " fill="#2F302E" transform="translate(764,792)"/>
<path d="M0 0 C0.33 0.66 0.66 1.32 1 2 C0.34 1.67 -0.32 1.34 -1 1 C-0.67 0.67 -0.34 0.34 0 0 Z " fill="#252523" transform="translate(180,773)"/>
<path d="" fill="#292725" transform="translate(0,0)"/>
<path d="M0 0 C0.99 0.495 0.99 0.495 2 1 C1.01 1.495 1.01 1.495 0 2 C0 1.34 0 0.68 0 0 Z " fill="#2C2A2A" transform="translate(797,760)"/>
<path d="" fill="#2F2E2F" transform="translate(0,0)"/>
<path d="M0 0 C3 1 3 1 3 1 Z " fill="#343232" transform="translate(416,735)"/>
<path d="M0 0 C0.66 0 1.32 0 2 0 C1.67 0.66 1.34 1.32 1 2 C0.67 1.34 0.34 0.68 0 0 Z " fill="#323130" transform="translate(639,728)"/>
<path d="M0 0 C3 1 3 1 3 1 Z " fill="#363533" transform="translate(321,725)"/>
<path d="M0 0 C3 1 3 1 3 1 Z " fill="#363534" transform="translate(314,724)"/>
<path d="M0 0 C3 1 3 1 3 1 Z " fill="#343433" transform="translate(660,720)"/>
<path d="M0 0 C0.66 0.66 1.32 1.32 2 2 C1.34 2 0.68 2 0 2 C0 1.34 0 0.68 0 0 Z " fill="#323131" transform="translate(681,713)"/>
<path d="M0 0 C0.66 0 1.32 0 2 0 C1.67 0.66 1.34 1.32 1 2 C0.67 1.34 0.34 0.68 0 0 Z " fill="#313030" transform="translate(563,704)"/>
<path d="M0 0 C0.99 0.495 0.99 0.495 2 1 C1.01 1.495 1.01 1.495 0 2 C0 1.34 0 0.68 0 0 Z " fill="#383837" transform="translate(640,688)"/>
<path d="" fill="#3A3937" transform="translate(0,0)"/>
<path d="M0 0 C0.66 0 1.32 0 2 0 C1.67 0.66 1.34 1.32 1 2 C0.67 1.34 0.34 0.68 0 0 Z " fill="#323130" transform="translate(564,670)"/>
<path d="M0 0 C0.66 0.66 1.32 1.32 2 2 C1.34 2 0.68 2 0 2 C0 1.34 0 0.68 0 0 Z " fill="#31312F" transform="translate(516,640)"/>
<path d="M0 0 C3 1 3 1 3 1 Z " fill="#353533" transform="translate(464,523)"/>
<path d="" fill="#30302E" transform="translate(0,0)"/>
<path d="M0 0 C0.33 0.66 0.66 1.32 1 2 C0.34 1.67 -0.32 1.34 -1 1 C-0.67 0.67 -0.34 0.34 0 0 Z " fill="#323132" transform="translate(465,476)"/>
<path d="M0 0 C3 1 3 1 3 1 Z " fill="#2D2D2A" transform="translate(485,272)"/>
<path d="M0 0 C3 1 3 1 3 1 Z " fill="#302E2E" transform="translate(642,158)"/>
<path d="M0 0 C0.33 0.66 0.66 1.32 1 2 C0.34 1.67 -0.32 1.34 -1 1 C-0.67 0.67 -0.34 0.34 0 0 Z " fill="#292A28" transform="translate(695,129)"/>
<path d="M0 0 C2 1 2 1 2 1 Z " fill="#353534" transform="translate(540,934)"/>
<path d="M0 0 C2 1 2 1 2 1 Z " fill="#282726" transform="translate(361,907)"/>
<path d="" fill="#2A2928" transform="translate(0,0)"/>
<path d="" fill="#31302F" transform="translate(0,0)"/>
<path d="" fill="#282A26" transform="translate(0,0)"/>
<path d="" fill="#2F2F2E" transform="translate(0,0)"/>
<path d="M0 0 C2 1 2 1 2 1 Z " fill="#32302F" transform="translate(422,880)"/>
<path d="M0 0 C2 1 2 1 2 1 Z " fill="#30302F" transform="translate(419,880)"/>
<path d="M0 0 C2 1 2 1 2 1 Z " fill="#292827" transform="translate(297,876)"/>
<path d="M0 0 C2 1 2 1 2 1 Z " fill="#30302F" transform="translate(617,875)"/>
<path d="M0 0 C2 1 2 1 2 1 Z " fill="#312F2D" transform="translate(621,874)"/>
<path d="" fill="#333230" transform="translate(0,0)"/>
<path d="" fill="#2C2C2A" transform="translate(0,0)"/>
<path d="" fill="#2D2D2B" transform="translate(0,0)"/>
<path d="" fill="#272524" transform="translate(0,0)"/>
<path d="M0 0 C2 1 2 1 2 1 Z " fill="#262523" transform="translate(186,782)"/>
<path d="M0 0 C2 1 2 1 2 1 Z " fill="#262523" transform="translate(184,781)"/>
<path d="" fill="#322F2D" transform="translate(0,0)"/>
<path d="" fill="#2F302E" transform="translate(0,0)"/>
<path d="M0 0 C2 1 2 1 2 1 Z " fill="#383737" transform="translate(532,766)"/>
<path d="M0 0 C2 1 2 1 2 1 Z " fill="#353334" transform="translate(467,766)"/>
<path d="" fill="#302F2D" transform="translate(0,0)"/>
<path d="" fill="#3B3A39" transform="translate(0,0)"/>
<path d="M0 0 C2 1 2 1 2 1 Z " fill="#2F2E2E" transform="translate(489,747)"/>
<path d="" fill="#303030" transform="translate(0,0)"/>
<path d="M0 0 C2 1 2 1 2 1 Z " fill="#2E2F2D" transform="translate(412,745)"/>
<path d="M0 0 C2 1 2 1 2 1 Z " fill="#302F2D" transform="translate(519,744)"/>
<path d="M0 0 C2 1 2 1 2 1 Z " fill="#312F2C" transform="translate(400,744)"/>
<path d="M0 0 C2 1 2 1 2 1 Z " fill="#30302D" transform="translate(593,739)"/>
<path d="M0 0 C2 1 2 1 2 1 Z " fill="#383536" transform="translate(350,738)"/>
<path d="M0 0 C2 1 2 1 2 1 Z " fill="#333132" transform="translate(608,736)"/>
<path d="M0 0 C2 1 2 1 2 1 Z " fill="#313030" transform="translate(596,736)"/>
<path d="M0 0 C2 1 2 1 2 1 Z " fill="#312F30" transform="translate(420,735)"/>
<path d="M0 0 C2 1 2 1 2 1 Z " fill="#2F2F2E" transform="translate(531,734)"/>
<path d="M0 0 C2 1 2 1 2 1 Z " fill="#323231" transform="translate(377,732)"/>
<path d="M0 0 C2 1 2 1 2 1 Z " fill="#31312F" transform="translate(596,725)"/>
<path d="M0 0 C2 1 2 1 2 1 Z " fill="#343433" transform="translate(685,712)"/>
<path d="M0 0 C2 1 2 1 2 1 Z " fill="#323231" transform="translate(385,705)"/>
<path d="M0 0 C2 1 2 1 2 1 Z " fill="#312D2C" transform="translate(382,705)"/>
<path d="M0 0 C2 1 2 1 2 1 Z " fill="#363737" transform="translate(699,704)"/>
<path d="M0 0 C2 1 2 1 2 1 Z " fill="#303030" transform="translate(571,704)"/>
<path d="M0 0 C2 1 2 1 2 1 Z " fill="#353432" transform="translate(379,704)"/>
<path d="M0 0 C2 1 2 1 2 1 Z " fill="#363534" transform="translate(376,704)"/>
<path d="M0 0 C2 1 2 1 2 1 Z " fill="#383736" transform="translate(644,689)"/>
<path d="M0 0 C2 1 2 1 2 1 Z " fill="#3D3C3B" transform="translate(648,688)"/>
<path d="M0 0 C2 1 2 1 2 1 Z " fill="#312F2E" transform="translate(416,678)"/>
<path d="" fill="#3D3B3B" transform="translate(0,0)"/>
<path d="M0 0 C2 1 2 1 2 1 Z " fill="#343333" transform="translate(570,668)"/>
<path d="M0 0 C2 1 2 1 2 1 Z " fill="#383938" transform="translate(590,663)"/>
<path d="M0 0 C2 1 2 1 2 1 Z " fill="#2F2D2C" transform="translate(476,644)"/>
<path d="" fill="#323230" transform="translate(0,0)"/>
<path d="M0 0 C2 1 2 1 2 1 Z " fill="#31302E" transform="translate(497,643)"/>
<path d="M0 0 C2 1 2 1 2 1 Z " fill="#2F2E2B" transform="translate(423,641)"/>
<path d="M0 0 C2 1 2 1 2 1 Z " fill="#31302E" transform="translate(520,640)"/>
<path d="M0 0 C2 1 2 1 2 1 Z " fill="#2C2A2A" transform="translate(916,633)"/>
<path d="M0 0 C2 1 2 1 2 1 Z " fill="#343232" transform="translate(484,615)"/>
<path d="M0 0 C2 1 2 1 2 1 Z " fill="#31302F" transform="translate(507,614)"/>
<path d="M0 0 C2 1 2 1 2 1 Z " fill="#2F2F2F" transform="translate(413,612)"/>
<path d="M0 0 C2 1 2 1 2 1 Z " fill="#323130" transform="translate(556,607)"/>
<path d="" fill="#2E2D2C" transform="translate(0,0)"/>
<path d="M0 0 C2 1 2 1 2 1 Z " fill="#363634" transform="translate(608,601)"/>
<path d="" fill="#363634" transform="translate(0,0)"/>
<path d="M0 0 C2 1 2 1 2 1 Z " fill="#333231" transform="translate(682,581)"/>
<path d="M0 0 C2 1 2 1 2 1 Z " fill="#2E2D2D" transform="translate(574,576)"/>
<path d="" fill="#2C2B2C" transform="translate(0,0)"/>
<path d="M0 0 C2 1 2 1 2 1 Z " fill="#333032" transform="translate(656,561)"/>
<path d="" fill="#32302F" transform="translate(0,0)"/>
<path d="M0 0 C2 1 2 1 2 1 Z " fill="#333131" transform="translate(550,539)"/>
<path d="" fill="#2E2C2B" transform="translate(0,0)"/>
<path d="" fill="#333332" transform="translate(0,0)"/>
<path d="" fill="#32322F" transform="translate(0,0)"/>
<path d="M0 0 C2 1 2 1 2 1 Z " fill="#343432" transform="translate(402,521)"/>
<path d="M0 0 C2 1 2 1 2 1 Z " fill="#333331" transform="translate(392,520)"/>
<path d="M0 0 C2 1 2 1 2 1 Z " fill="#343332" transform="translate(387,520)"/>
<path d="M0 0 C2 1 2 1 2 1 Z " fill="#393835" transform="translate(656,499)"/>
<path d="M0 0 C2 1 2 1 2 1 Z " fill="#393837" transform="translate(397,499)"/>
<path d="M0 0 C2 1 2 1 2 1 Z " fill="#3E3B3A" transform="translate(641,493)"/>
<path d="" fill="#302D2D" transform="translate(0,0)"/>
<path d="M0 0 C2 1 2 1 2 1 Z " fill="#373734" transform="translate(685,483)"/>
<path d="" fill="#323231" transform="translate(0,0)"/>
<path d="M0 0 C2 1 2 1 2 1 Z " fill="#393836" transform="translate(679,481)"/>
<path d="M0 0 C2 1 2 1 2 1 Z " fill="#30302F" transform="translate(469,479)"/>
<path d="" fill="#31302D" transform="translate(0,0)"/>
<path d="" fill="#292728" transform="translate(0,0)"/>
<path d="" fill="#2E2B2B" transform="translate(0,0)"/>
<path d="" fill="#2A2628" transform="translate(0,0)"/>
<path d="" fill="#2C2B2A" transform="translate(0,0)"/>
<path d="" fill="#323230" transform="translate(0,0)"/>
<path d="" fill="#282725" transform="translate(0,0)"/>
<path d="" fill="#2F2C2A" transform="translate(0,0)"/>
<path d="" fill="#2E2E2E" transform="translate(0,0)"/>
<path d="" fill="#2B2828" transform="translate(0,0)"/>
<path d="" fill="#262725" transform="translate(0,0)"/>
<path d="" fill="#30302F" transform="translate(0,0)"/>
<path d="M0 0 C2 1 2 1 2 1 Z " fill="#292727" transform="translate(505,339)"/>
<path d="M0 0 C2 1 2 1 2 1 Z " fill="#282827" transform="translate(501,311)"/>
<path d="M0 0 C2 1 2 1 2 1 Z " fill="#282928" transform="translate(454,296)"/>
<path d="M0 0 C2 1 2 1 2 1 Z " fill="#3B3939" transform="translate(608,288)"/>
<path d="" fill="#2A2825" transform="translate(0,0)"/>
<path d="M0 0 C2 1 2 1 2 1 Z " fill="#30322E" transform="translate(482,272)"/>
<path d="" fill="#2C2A2A" transform="translate(0,0)"/>
<path d="M0 0 C2 1 2 1 2 1 Z " fill="#2A2928" transform="translate(744,215)"/>
<path d="M0 0 C2 1 2 1 2 1 Z " fill="#292926" transform="translate(729,203)"/>
<path d="M0 0 C2 1 2 1 2 1 Z " fill="#2C2B2A" transform="translate(724,199)"/>
<path d="" fill="#383837" transform="translate(0,0)"/>
<path d="M0 0 C2 1 2 1 2 1 Z " fill="#2A2B28" transform="translate(689,179)"/>
<path d="M0 0 C2 1 2 1 2 1 Z " fill="#2A2A2A" transform="translate(680,175)"/>
<path d="" fill="#292727" transform="translate(0,0)"/>
<path d="M0 0 C2 1 2 1 2 1 Z " fill="#2F2E2E" transform="translate(634,155)"/>
<path d="M0 0 C2 1 2 1 2 1 Z " fill="#302F2E" transform="translate(610,147)"/>
<path d="M0 0 C2 1 2 1 2 1 Z " fill="#2E2C29" transform="translate(296,147)"/>
<path d="M0 0 C2 1 2 1 2 1 Z " fill="#333130" transform="translate(587,142)"/>
<path d="" fill="#2E2D28" transform="translate(0,0)"/>
<path d="M0 0 C2 1 2 1 2 1 Z " fill="#2A2828" transform="translate(314,138)"/>
<path d="M0 0 C2 1 2 1 2 1 Z " fill="#353332" transform="translate(491,134)"/>
<path d="M0 0 C2 1 2 1 2 1 Z " fill="#2C2A29" transform="translate(689,128)"/>
<path d="M0 0 C2 1 2 1 2 1 Z " fill="#292928" transform="translate(334,128)"/>
<path d="M0 0 C2 1 2 1 2 1 Z " fill="#282A28" transform="translate(670,120)"/>
<path d="M0 0 C2 1 2 1 2 1 Z " fill="#2F2F2D" transform="translate(648,112)"/>
<path d="M0 0 C2 1 2 1 2 1 Z " fill="#2E2B29" transform="translate(400,104)"/>
<path d="M0 0 C2 1 2 1 2 1 Z " fill="#343230" transform="translate(464,92)"/>
<path d="M0 0 C2 1 2 1 2 1 Z " fill="#373634" transform="translate(486,90)"/>
<path d="" fill="#353433" transform="translate(0,0)"/>
<path d="" fill="#343130" transform="translate(0,0)"/>
<path d="" fill="#33302E" transform="translate(0,0)"/>
<path d="" fill="#353231" transform="translate(0,0)"/>
<path d="" fill="#393838" transform="translate(0,0)"/>
<path d="" fill="#323230" transform="translate(0,0)"/>
<path d="" fill="#222221" transform="translate(0,0)"/>
<path d="" fill="#333331" transform="translate(0,0)"/>
<path d="" fill="#333431" transform="translate(0,0)"/>
<path d="" fill="#333330" transform="translate(0,0)"/>
<path d="" fill="#302E2F" transform="translate(0,0)"/>
<path d="" fill="#32302E" transform="translate(0,0)"/>
<path d="" fill="#2F2E2D" transform="translate(0,0)"/>
<path d="" fill="#2F2F2E" transform="translate(0,0)"/>
<path d="" fill="#30322D" transform="translate(0,0)"/>
<path d="" fill="#2E2E2C" transform="translate(0,0)"/>
<path d="" fill="#30312E" transform="translate(0,0)"/>
<path d="" fill="#302D2C" transform="translate(0,0)"/>
<path d="" fill="#2E2C2B" transform="translate(0,0)"/>
<path d="" fill="#2E2E2B" transform="translate(0,0)"/>
<path d="" fill="#2D2B2C" transform="translate(0,0)"/>
<path d="" fill="#2E2D2B" transform="translate(0,0)"/>
<path d="" fill="#2F2E2C" transform="translate(0,0)"/>
<path d="" fill="#2E2D2B" transform="translate(0,0)"/>
<path d="" fill="#2E2D2C" transform="translate(0,0)"/>
<path d="" fill="#2D2E2B" transform="translate(0,0)"/>
<path d="" fill="#2B2928" transform="translate(0,0)"/>
<path d="" fill="#292829" transform="translate(0,0)"/>
<path d="" fill="#2D2C2B" transform="translate(0,0)"/>
<path d="" fill="#2C2A28" transform="translate(0,0)"/>
<path d="" fill="#2D2D2B" transform="translate(0,0)"/>
<path d="" fill="#272927" transform="translate(0,0)"/>
<path d="" fill="#2D2C2A" transform="translate(0,0)"/>
<path d="" fill="#2A2928" transform="translate(0,0)"/>
<path d="" fill="#313230" transform="translate(0,0)"/>
<path d="" fill="#322F30" transform="translate(0,0)"/>
<path d="" fill="#31312E" transform="translate(0,0)"/>
<path d="" fill="#333232" transform="translate(0,0)"/>
<path d="" fill="#383634" transform="translate(0,0)"/>
<path d="" fill="#353431" transform="translate(0,0)"/>
<path d="" fill="#302F2E" transform="translate(0,0)"/>
<path d="" fill="#2B2828" transform="translate(0,0)"/>
<path d="" fill="#2D2B29" transform="translate(0,0)"/>
<path d="" fill="#262422" transform="translate(0,0)"/>
<path d="" fill="#333132" transform="translate(0,0)"/>
<path d="" fill="#32322E" transform="translate(0,0)"/>
<path d="" fill="#333031" transform="translate(0,0)"/>
<path d="" fill="#313231" transform="translate(0,0)"/>
<path d="" fill="#363230" transform="translate(0,0)"/>
<path d="" fill="#333432" transform="translate(0,0)"/>
<path d="" fill="#343431" transform="translate(0,0)"/>
<path d="" fill="#292A2A" transform="translate(0,0)"/>
<path d="" fill="#2D2A2B" transform="translate(0,0)"/>
<path d="" fill="#292A28" transform="translate(0,0)"/>
<path d="" fill="#292928" transform="translate(0,0)"/>
<path d="" fill="#2B2929" transform="translate(0,0)"/>
<path d="" fill="#2D2D2B" transform="translate(0,0)"/>
<path d="" fill="#2B2828" transform="translate(0,0)"/>
<path d="" fill="#282526" transform="translate(0,0)"/>
<path d="" fill="#323130" transform="translate(0,0)"/>
<path d="" fill="#262727" transform="translate(0,0)"/>
<path d="" fill="#33302D" transform="translate(0,0)"/>
<path d="" fill="#31302F" transform="translate(0,0)"/>
<path d="" fill="#2F2E2C" transform="translate(0,0)"/>
<path d="" fill="#292828" transform="translate(0,0)"/>
<path d="" fill="#2A2A27" transform="translate(0,0)"/>
<path d="" fill="#292825" transform="translate(0,0)"/>
<path d="" fill="#292826" transform="translate(0,0)"/>
<path d="" fill="#313130" transform="translate(0,0)"/>
<path d="" fill="#32312F" transform="translate(0,0)"/>
<path d="" fill="#31302F" transform="translate(0,0)"/>
<path d="" fill="#312F2E" transform="translate(0,0)"/>
<path d="" fill="#30312D" transform="translate(0,0)"/>
<path d="" fill="#31302F" transform="translate(0,0)"/>
<path d="" fill="#31312E" transform="translate(0,0)"/>
<path d="" fill="#2F2E2E" transform="translate(0,0)"/>
<path d="" fill="#252523" transform="translate(0,0)"/>
<path d="" fill="#292827" transform="translate(0,0)"/>
<path d="" fill="#282526" transform="translate(0,0)"/>
<path d="" fill="#333231" transform="translate(0,0)"/>
<path d="" fill="#252625" transform="translate(0,0)"/>
<path d="" fill="#302F2C" transform="translate(0,0)"/>
<path d="" fill="#2F2E2E" transform="translate(0,0)"/>
<path d="" fill="#31302D" transform="translate(0,0)"/>
<path d="" fill="#322F2E" transform="translate(0,0)"/>
<path d="" fill="#2E2F2E" transform="translate(0,0)"/>
<path d="" fill="#312E2E" transform="translate(0,0)"/>
<path d="" fill="#292A27" transform="translate(0,0)"/>
<path d="" fill="#262726" transform="translate(0,0)"/>
<path d="" fill="#2F312D" transform="translate(0,0)"/>
<path d="" fill="#282625" transform="translate(0,0)"/>
<path d="" fill="#272725" transform="translate(0,0)"/>
<path d="" fill="#2E2E2B" transform="translate(0,0)"/>
<path d="" fill="#2F2F2B" transform="translate(0,0)"/>
<path d="" fill="#302F2E" transform="translate(0,0)"/>
<path d="" fill="#3C3B3B" transform="translate(0,0)"/>
<path d="" fill="#2D2B2B" transform="translate(0,0)"/>
<path d="" fill="#2B2B27" transform="translate(0,0)"/>
<path d="" fill="#2C2C2C" transform="translate(0,0)"/>
<path d="" fill="#2F2C29" transform="translate(0,0)"/>
<path d="" fill="#2D2D2C" transform="translate(0,0)"/>
<path d="" fill="#30302C" transform="translate(0,0)"/>
<path d="" fill="#2D2C2A" transform="translate(0,0)"/>
<path d="" fill="#2C2C28" transform="translate(0,0)"/>
<path d="" fill="#3A3A39" transform="translate(0,0)"/>
<path d="" fill="#242120" transform="translate(0,0)"/>
<path d="" fill="#2D2C27" transform="translate(0,0)"/>
<path d="" fill="#2B2A2A" transform="translate(0,0)"/>
<path d="" fill="#282624" transform="translate(0,0)"/>
<path d="" fill="#2E2F2D" transform="translate(0,0)"/>
<path d="" fill="#272727" transform="translate(0,0)"/>
<path d="" fill="#2C2D2D" transform="translate(0,0)"/>
<path d="" fill="#272824" transform="translate(0,0)"/>
<path d="" fill="#292827" transform="translate(0,0)"/>
<path d="" fill="#272626" transform="translate(0,0)"/>
<path d="" fill="#2A2928" transform="translate(0,0)"/>
<path d="" fill="#262523" transform="translate(0,0)"/>
<path d="" fill="#2F2F2C" transform="translate(0,0)"/>
<path d="" fill="#282726" transform="translate(0,0)"/>
<path d="" fill="#2F2E2C" transform="translate(0,0)"/>
<path d="" fill="#2F2D2B" transform="translate(0,0)"/>
<path d="" fill="#252222" transform="translate(0,0)"/>
<path d="" fill="#313130" transform="translate(0,0)"/>
<path d="" fill="#2F2F2C" transform="translate(0,0)"/>
<path d="" fill="#302D2B" transform="translate(0,0)"/>
<path d="" fill="#2F2E2D" transform="translate(0,0)"/>
<path d="" fill="#272727" transform="translate(0,0)"/>
<path d="" fill="#2E2C2B" transform="translate(0,0)"/>
<path d="" fill="#2D2C2B" transform="translate(0,0)"/>
<path d="" fill="#30312D" transform="translate(0,0)"/>
<path d="" fill="#262522" transform="translate(0,0)"/>
<path d="" fill="#292C27" transform="translate(0,0)"/>
<path d="" fill="#2E2E2C" transform="translate(0,0)"/>
<path d="" fill="#2E2C2B" transform="translate(0,0)"/>
<path d="" fill="#2D2B29" transform="translate(0,0)"/>
<path d="" fill="#373634" transform="translate(0,0)"/>
<path d="" fill="#343432" transform="translate(0,0)"/>
<path d="" fill="#353635" transform="translate(0,0)"/>
<path d="" fill="#383533" transform="translate(0,0)"/>
<path d="" fill="#312E2C" transform="translate(0,0)"/>
<path d="" fill="#393735" transform="translate(0,0)"/>
<path d="" fill="#30302D" transform="translate(0,0)"/>
<path d="" fill="#383434" transform="translate(0,0)"/>
<path d="" fill="#383838" transform="translate(0,0)"/>
<path d="" fill="#3A3938" transform="translate(0,0)"/>
<path d="" fill="#363433" transform="translate(0,0)"/>
<path d="" fill="#393736" transform="translate(0,0)"/>
<path d="" fill="#373937" transform="translate(0,0)"/>
<path d="" fill="#373634" transform="translate(0,0)"/>
<path d="" fill="#363435" transform="translate(0,0)"/>
<path d="" fill="#2E2F2C" transform="translate(0,0)"/>
<path d="" fill="#31312D" transform="translate(0,0)"/>
<path d="" fill="#3A3838" transform="translate(0,0)"/>
<path d="" fill="#262725" transform="translate(0,0)"/>
<path d="" fill="#393938" transform="translate(0,0)"/>
<path d="" fill="#353332" transform="translate(0,0)"/>
<path d="" fill="#3B393A" transform="translate(0,0)"/>
<path d="" fill="#3A3939" transform="translate(0,0)"/>
<path d="" fill="#242423" transform="translate(0,0)"/>
<path d="" fill="#393737" transform="translate(0,0)"/>
<path d="" fill="#39393A" transform="translate(0,0)"/>
<path d="" fill="#292927" transform="translate(0,0)"/>
<path d="" fill="#393537" transform="translate(0,0)"/>
<path d="" fill="#2F2E2D" transform="translate(0,0)"/>
<path d="" fill="#2F2E2D" transform="translate(0,0)"/>
<path d="" fill="#2E2E2D" transform="translate(0,0)"/>
<path d="" fill="#2F2E2C" transform="translate(0,0)"/>
<path d="" fill="#2B2829" transform="translate(0,0)"/>
<path d="" fill="#32302F" transform="translate(0,0)"/>
<path d="" fill="#2F2F2D" transform="translate(0,0)"/>
<path d="" fill="#2F2D2C" transform="translate(0,0)"/>
<path d="" fill="#302F2F" transform="translate(0,0)"/>
<path d="" fill="#302F2D" transform="translate(0,0)"/>
<path d="" fill="#302F2D" transform="translate(0,0)"/>
<path d="" fill="#302E2C" transform="translate(0,0)"/>
<path d="" fill="#302F2E" transform="translate(0,0)"/>
<path d="" fill="#332F30" transform="translate(0,0)"/>
<path d="" fill="#2F2D2C" transform="translate(0,0)"/>
<path d="" fill="#323131" transform="translate(0,0)"/>
<path d="" fill="#323131" transform="translate(0,0)"/>
<path d="" fill="#31312E" transform="translate(0,0)"/>
<path d="" fill="#312F2F" transform="translate(0,0)"/>
<path d="" fill="#2A2826" transform="translate(0,0)"/>
<path d="" fill="#302F2F" transform="translate(0,0)"/>
<path d="" fill="#2B2928" transform="translate(0,0)"/>
<path d="" fill="#2C2D2B" transform="translate(0,0)"/>
<path d="" fill="#282626" transform="translate(0,0)"/>
<path d="" fill="#2F2E2E" transform="translate(0,0)"/>
<path d="" fill="#2F2D2D" transform="translate(0,0)"/>
<path d="" fill="#262725" transform="translate(0,0)"/>
<path d="" fill="#292725" transform="translate(0,0)"/>
<path d="" fill="#343431" transform="translate(0,0)"/>
<path d="" fill="#272826" transform="translate(0,0)"/>
<path d="" fill="#303030" transform="translate(0,0)"/>
<path d="" fill="#2F2F2C" transform="translate(0,0)"/>
<path d="" fill="#30312F" transform="translate(0,0)"/>
<path d="" fill="#2F2D2C" transform="translate(0,0)"/>
<path d="" fill="#2E2D2D" transform="translate(0,0)"/>
<path d="" fill="#302F2E" transform="translate(0,0)"/>
<path d="" fill="#313231" transform="translate(0,0)"/>
<path d="" fill="#302E2F" transform="translate(0,0)"/>
<path d="" fill="#312F30" transform="translate(0,0)"/>
<path d="" fill="#313030" transform="translate(0,0)"/>
<path d="" fill="#2F2F2E" transform="translate(0,0)"/>
<path d="" fill="#323130" transform="translate(0,0)"/>
<path d="" fill="#302F2E" transform="translate(0,0)"/>
<path d="" fill="#2E2B2A" transform="translate(0,0)"/>
<path d="" fill="#363334" transform="translate(0,0)"/>
<path d="" fill="#2F2E2F" transform="translate(0,0)"/>
<path d="" fill="#2E2D2B" transform="translate(0,0)"/>
<path d="" fill="#343433" transform="translate(0,0)"/>
<path d="" fill="#343533" transform="translate(0,0)"/>
<path d="" fill="#353334" transform="translate(0,0)"/>
<path d="" fill="#323231" transform="translate(0,0)"/>
<path d="" fill="#353233" transform="translate(0,0)"/>
<path d="" fill="#343231" transform="translate(0,0)"/>
<path d="" fill="#3B3A3A" transform="translate(0,0)"/>
<path d="" fill="#343434" transform="translate(0,0)"/>
<path d="" fill="#3B3A39" transform="translate(0,0)"/>
<path d="" fill="#292727" transform="translate(0,0)"/>
<path d="" fill="#333631" transform="translate(0,0)"/>
<path d="" fill="#322F2E" transform="translate(0,0)"/>
<path d="" fill="#292825" transform="translate(0,0)"/>
<path d="" fill="#343432" transform="translate(0,0)"/>
<path d="" fill="#2D2C2B" transform="translate(0,0)"/>
<path d="" fill="#2F2D2D" transform="translate(0,0)"/>
<path d="" fill="#363533" transform="translate(0,0)"/>
<path d="" fill="#31312E" transform="translate(0,0)"/>
<path d="" fill="#2A2A27" transform="translate(0,0)"/>
<path d="" fill="#363735" transform="translate(0,0)"/>
<path d="" fill="#363533" transform="translate(0,0)"/>
<path d="" fill="#2A2B27" transform="translate(0,0)"/>
<path d="" fill="#333331" transform="translate(0,0)"/>
<path d="" fill="#292828" transform="translate(0,0)"/>
<path d="" fill="#2B2B2A" transform="translate(0,0)"/>
<path d="" fill="#2B2B2B" transform="translate(0,0)"/>
<path d="" fill="#2B2D2B" transform="translate(0,0)"/>
<path d="" fill="#2D2B2B" transform="translate(0,0)"/>
<path d="" fill="#2C2B2B" transform="translate(0,0)"/>
<path d="" fill="#343433" transform="translate(0,0)"/>
<path d="" fill="#363733" transform="translate(0,0)"/>
<path d="" fill="#323130" transform="translate(0,0)"/>
<path d="" fill="#292928" transform="translate(0,0)"/>
<path d="" fill="#323230" transform="translate(0,0)"/>
<path d="" fill="#30302F" transform="translate(0,0)"/>
<path d="" fill="#323230" transform="translate(0,0)"/>
<path d="" fill="#292825" transform="translate(0,0)"/>
<path d="" fill="#3E3B3D" transform="translate(0,0)"/>
<path d="" fill="#312F2F" transform="translate(0,0)"/>
<path d="" fill="#323230" transform="translate(0,0)"/>
<path d="" fill="#30302F" transform="translate(0,0)"/>
<path d="" fill="#393837" transform="translate(0,0)"/>
<path d="" fill="#2E2F2D" transform="translate(0,0)"/>
<path d="" fill="#313030" transform="translate(0,0)"/>
<path d="" fill="#2F302E" transform="translate(0,0)"/>
<path d="" fill="#31322F" transform="translate(0,0)"/>
<path d="" fill="#2F2F2E" transform="translate(0,0)"/>
<path d="" fill="#313230" transform="translate(0,0)"/>
<path d="" fill="#313231" transform="translate(0,0)"/>
<path d="" fill="#312F30" transform="translate(0,0)"/>
<path d="" fill="#32312F" transform="translate(0,0)"/>
<path d="" fill="#30302F" transform="translate(0,0)"/>
<path d="" fill="#313230" transform="translate(0,0)"/>
<path d="" fill="#2E2C2C" transform="translate(0,0)"/>
<path d="" fill="#313030" transform="translate(0,0)"/>
<path d="" fill="#343535" transform="translate(0,0)"/>
<path d="" fill="#3B3939" transform="translate(0,0)"/>
<path d="" fill="#3C3A3A" transform="translate(0,0)"/>
<path d="" fill="#353232" transform="translate(0,0)"/>
<path d="" fill="#3E3C3C" transform="translate(0,0)"/>
<path d="" fill="#3C3C3C" transform="translate(0,0)"/>
<path d="" fill="#353635" transform="translate(0,0)"/>
<path d="" fill="#333432" transform="translate(0,0)"/>
<path d="" fill="#333432" transform="translate(0,0)"/>
<path d="" fill="#313031" transform="translate(0,0)"/>
<path d="" fill="#313130" transform="translate(0,0)"/>
<path d="" fill="#3D3A3A" transform="translate(0,0)"/>
<path d="" fill="#353334" transform="translate(0,0)"/>
<path d="" fill="#353634" transform="translate(0,0)"/>
<path d="" fill="#343231" transform="translate(0,0)"/>
<path d="" fill="#333131" transform="translate(0,0)"/>
<path d="" fill="#292A29" transform="translate(0,0)"/>
<path d="" fill="#292624" transform="translate(0,0)"/>
<path d="" fill="#302F2D" transform="translate(0,0)"/>
<path d="" fill="#363534" transform="translate(0,0)"/>
<path d="" fill="#282625" transform="translate(0,0)"/>
<path d="" fill="#262624" transform="translate(0,0)"/>
<path d="" fill="#383736" transform="translate(0,0)"/>
<path d="" fill="#2B2728" transform="translate(0,0)"/>
<path d="" fill="#3C3B3B" transform="translate(0,0)"/>
<path d="" fill="#363635" transform="translate(0,0)"/>
<path d="" fill="#373735" transform="translate(0,0)"/>
<path d="" fill="#373534" transform="translate(0,0)"/>
<path d="" fill="#3A3938" transform="translate(0,0)"/>
<path d="" fill="#31302F" transform="translate(0,0)"/>
<path d="" fill="#373636" transform="translate(0,0)"/>
<path d="" fill="#2B2B29" transform="translate(0,0)"/>
<path d="" fill="#2F2E2B" transform="translate(0,0)"/>
<path d="" fill="#2F2F2D" transform="translate(0,0)"/>
<path d="" fill="#2D2B2A" transform="translate(0,0)"/>
<path d="" fill="#393B37" transform="translate(0,0)"/>
<path d="" fill="#272725" transform="translate(0,0)"/>
<path d="" fill="#3C3A39" transform="translate(0,0)"/>
<path d="" fill="#262525" transform="translate(0,0)"/>
<path d="" fill="#403F3F" transform="translate(0,0)"/>
<path d="" fill="#343232" transform="translate(0,0)"/>
<path d="" fill="#333132" transform="translate(0,0)"/>
<path d="" fill="#383536" transform="translate(0,0)"/>
<path d="" fill="#3B3B3A" transform="translate(0,0)"/>
<path d="" fill="#3C3C3A" transform="translate(0,0)"/>
<path d="" fill="#403E3C" transform="translate(0,0)"/>
<path d="" fill="#3A3A38" transform="translate(0,0)"/>
<path d="" fill="#383A36" transform="translate(0,0)"/>
<path d="" fill="#383938" transform="translate(0,0)"/>
<path d="" fill="#2C2B29" transform="translate(0,0)"/>
<path d="" fill="#393838" transform="translate(0,0)"/>
<path d="" fill="#333430" transform="translate(0,0)"/>
<path d="" fill="#3C3C3A" transform="translate(0,0)"/>
<path d="" fill="#272826" transform="translate(0,0)"/>
<path d="" fill="#2C2C2B" transform="translate(0,0)"/>
<path d="" fill="#272826" transform="translate(0,0)"/>
<path d="" fill="#2A2A2A" transform="translate(0,0)"/>
<path d="" fill="#2D2B2B" transform="translate(0,0)"/>
<path d="" fill="#373636" transform="translate(0,0)"/>
<path d="" fill="#2D2929" transform="translate(0,0)"/>
<path d="" fill="#353433" transform="translate(0,0)"/>
<path d="" fill="#302F30" transform="translate(0,0)"/>
<path d="" fill="#2F2E30" transform="translate(0,0)"/>
<path d="" fill="#2E2D2C" transform="translate(0,0)"/>
<path d="" fill="#2F2F2D" transform="translate(0,0)"/>
<path d="" fill="#2E2E2D" transform="translate(0,0)"/>
<path d="" fill="#2F312E" transform="translate(0,0)"/>
<path d="" fill="#32302F" transform="translate(0,0)"/>
<path d="" fill="#313130" transform="translate(0,0)"/>
<path d="" fill="#303030" transform="translate(0,0)"/>
<path d="" fill="#2F302D" transform="translate(0,0)"/>
<path d="" fill="#32322F" transform="translate(0,0)"/>
<path d="" fill="#312F30" transform="translate(0,0)"/>
<path d="" fill="#2C2B29" transform="translate(0,0)"/>
<path d="" fill="#2F2C2B" transform="translate(0,0)"/>
<path d="" fill="#373534" transform="translate(0,0)"/>
<path d="" fill="#363433" transform="translate(0,0)"/>
<path d="" fill="#2C2D2B" transform="translate(0,0)"/>
<path d="" fill="#363634" transform="translate(0,0)"/>
<path d="" fill="#353433" transform="translate(0,0)"/>
<path d="" fill="#343432" transform="translate(0,0)"/>
<path d="" fill="#3E3D3D" transform="translate(0,0)"/>
<path d="" fill="#312E2E" transform="translate(0,0)"/>
<path d="" fill="#30302F" transform="translate(0,0)"/>
<path d="" fill="#333130" transform="translate(0,0)"/>
<path d="" fill="#313230" transform="translate(0,0)"/>
<path d="" fill="#343133" transform="translate(0,0)"/>
<path d="" fill="#2C2C2C" transform="translate(0,0)"/>
<path d="" fill="#322E2E" transform="translate(0,0)"/>
<path d="" fill="#2F302E" transform="translate(0,0)"/>
<path d="" fill="#333130" transform="translate(0,0)"/>
<path d="" fill="#333130" transform="translate(0,0)"/>
<path d="" fill="#2B2C2B" transform="translate(0,0)"/>
<path d="" fill="#323230" transform="translate(0,0)"/>
<path d="" fill="#313031" transform="translate(0,0)"/>
<path d="" fill="#323130" transform="translate(0,0)"/>
<path d="" fill="#323231" transform="translate(0,0)"/>
<path d="" fill="#333231" transform="translate(0,0)"/>
<path d="" fill="#33312F" transform="translate(0,0)"/>
<path d="" fill="#333330" transform="translate(0,0)"/>
<path d="" fill="#353532" transform="translate(0,0)"/>
<path d="" fill="#363635" transform="translate(0,0)"/>
<path d="" fill="#2D2C2B" transform="translate(0,0)"/>
<path d="" fill="#3D3B3C" transform="translate(0,0)"/>
<path d="" fill="#333131" transform="translate(0,0)"/>
<path d="" fill="#353434" transform="translate(0,0)"/>
<path d="" fill="#2D2A2A" transform="translate(0,0)"/>
<path d="" fill="#353434" transform="translate(0,0)"/>
<path d="" fill="#373533" transform="translate(0,0)"/>
<path d="" fill="#292827" transform="translate(0,0)"/>
<path d="" fill="#3B3A3A" transform="translate(0,0)"/>
<path d="" fill="#373536" transform="translate(0,0)"/>
<path d="" fill="#3A3938" transform="translate(0,0)"/>
<path d="" fill="#3A3A39" transform="translate(0,0)"/>
<path d="" fill="#393938" transform="translate(0,0)"/>
<path d="" fill="#3A3939" transform="translate(0,0)"/>
<path d="" fill="#322F31" transform="translate(0,0)"/>
<path d="" fill="#323633" transform="translate(0,0)"/>
<path d="" fill="#373738" transform="translate(0,0)"/>
<path d="" fill="#2D2C2B" transform="translate(0,0)"/>
<path d="" fill="#353735" transform="translate(0,0)"/>
<path d="" fill="#323534" transform="translate(0,0)"/>
<path d="" fill="#333231" transform="translate(0,0)"/>
<path d="" fill="#363535" transform="translate(0,0)"/>
<path d="" fill="#323030" transform="translate(0,0)"/>
<path d="" fill="#373535" transform="translate(0,0)"/>
<path d="" fill="#302F2F" transform="translate(0,0)"/>
<path d="" fill="#2C2B2C" transform="translate(0,0)"/>
<path d="" fill="#2E2E2D" transform="translate(0,0)"/>
<path d="" fill="#2F2C2C" transform="translate(0,0)"/>
<path d="" fill="#2E2F2E" transform="translate(0,0)"/>
<path d="" fill="#302F2F" transform="translate(0,0)"/>
<path d="" fill="#343232" transform="translate(0,0)"/>
<path d="" fill="#2F2D2C" transform="translate(0,0)"/>
<path d="" fill="#32302F" transform="translate(0,0)"/>
<path d="" fill="#2C2A2A" transform="translate(0,0)"/>
<path d="" fill="#2F2F2E" transform="translate(0,0)"/>
<path d="" fill="#2F2D2D" transform="translate(0,0)"/>
<path d="" fill="#312D2F" transform="translate(0,0)"/>
<path d="" fill="#2F2E2E" transform="translate(0,0)"/>
<path d="" fill="#2D2B28" transform="translate(0,0)"/>
<path d="" fill="#313031" transform="translate(0,0)"/>
<path d="" fill="#302F30" transform="translate(0,0)"/>
<path d="" fill="#2D2D2D" transform="translate(0,0)"/>
<path d="" fill="#2F2F2D" transform="translate(0,0)"/>
<path d="" fill="#2F2F2D" transform="translate(0,0)"/>
<path d="" fill="#2D2D2C" transform="translate(0,0)"/>
<path d="" fill="#312D2C" transform="translate(0,0)"/>
<path d="" fill="#2E2D2D" transform="translate(0,0)"/>
<path d="" fill="#333031" transform="translate(0,0)"/>
<path d="" fill="#343431" transform="translate(0,0)"/>
<path d="" fill="#2F2E2E" transform="translate(0,0)"/>
<path d="" fill="#2F2E2F" transform="translate(0,0)"/>
<path d="" fill="#2F2E2D" transform="translate(0,0)"/>
<path d="" fill="#2F2D2D" transform="translate(0,0)"/>
<path d="" fill="#2F302F" transform="translate(0,0)"/>
<path d="" fill="#2F2E2E" transform="translate(0,0)"/>
<path d="" fill="#30302C" transform="translate(0,0)"/>
<path d="" fill="#2D2C2C" transform="translate(0,0)"/>
<path d="" fill="#302F2D" transform="translate(0,0)"/>
<path d="" fill="#2D2C2B" transform="translate(0,0)"/>
<path d="" fill="#2E2F2D" transform="translate(0,0)"/>
<path d="" fill="#2E2F2D" transform="translate(0,0)"/>
<path d="" fill="#313030" transform="translate(0,0)"/>
<path d="" fill="#2F2F2D" transform="translate(0,0)"/>
<path d="" fill="#32312F" transform="translate(0,0)"/>
<path d="" fill="#313130" transform="translate(0,0)"/>
<path d="" fill="#383534" transform="translate(0,0)"/>
<path d="" fill="#313130" transform="translate(0,0)"/>
<path d="" fill="#373636" transform="translate(0,0)"/>
<path d="" fill="#393737" transform="translate(0,0)"/>
<path d="" fill="#312F2C" transform="translate(0,0)"/>
<path d="" fill="#2E2D2B" transform="translate(0,0)"/>
<path d="" fill="#312E2E" transform="translate(0,0)"/>
<path d="" fill="#30302E" transform="translate(0,0)"/>
<path d="" fill="#2E2C2A" transform="translate(0,0)"/>
<path d="" fill="#383938" transform="translate(0,0)"/>
<path d="" fill="#312F2E" transform="translate(0,0)"/>
<path d="" fill="#363535" transform="translate(0,0)"/>
<path d="" fill="#32312E" transform="translate(0,0)"/>
<path d="" fill="#383736" transform="translate(0,0)"/>
<path d="" fill="#31312C" transform="translate(0,0)"/>
<path d="" fill="#343333" transform="translate(0,0)"/>
<path d="" fill="#343233" transform="translate(0,0)"/>
<path d="" fill="#363736" transform="translate(0,0)"/>
<path d="" fill="#313030" transform="translate(0,0)"/>
<path d="" fill="#343130" transform="translate(0,0)"/>
<path d="" fill="#323330" transform="translate(0,0)"/>
<path d="" fill="#373734" transform="translate(0,0)"/>
<path d="" fill="#353334" transform="translate(0,0)"/>
<path d="" fill="#3B393A" transform="translate(0,0)"/>
<path d="" fill="#313131" transform="translate(0,0)"/>
<path d="" fill="#343131" transform="translate(0,0)"/>
<path d="" fill="#313031" transform="translate(0,0)"/>
<path d="" fill="#323332" transform="translate(0,0)"/>
<path d="" fill="#353434" transform="translate(0,0)"/>
<path d="" fill="#353434" transform="translate(0,0)"/>
<path d="" fill="#333231" transform="translate(0,0)"/>
<path d="" fill="#2D2D2D" transform="translate(0,0)"/>
<path d="" fill="#363434" transform="translate(0,0)"/>
<path d="" fill="#353433" transform="translate(0,0)"/>
<path d="" fill="#2A2826" transform="translate(0,0)"/>
<path d="" fill="#3B3838" transform="translate(0,0)"/>
<path d="" fill="#2F312E" transform="translate(0,0)"/>
<path d="" fill="#343333" transform="translate(0,0)"/>
<path d="" fill="#353535" transform="translate(0,0)"/>
<path d="" fill="#363433" transform="translate(0,0)"/>
<path d="" fill="#303030" transform="translate(0,0)"/>
<path d="" fill="#40413F" transform="translate(0,0)"/>
<path d="" fill="#2F3130" transform="translate(0,0)"/>
<path d="" fill="#444241" transform="translate(0,0)"/>
<path d="" fill="#434342" transform="translate(0,0)"/>
<path d="" fill="#32302F" transform="translate(0,0)"/>
<path d="" fill="#383937" transform="translate(0,0)"/>
<path d="" fill="#363434" transform="translate(0,0)"/>
<path d="" fill="#343334" transform="translate(0,0)"/>
<path d="" fill="#2F2D2D" transform="translate(0,0)"/>
<path d="" fill="#363334" transform="translate(0,0)"/>
<path d="" fill="#383536" transform="translate(0,0)"/>
<path d="" fill="#373735" transform="translate(0,0)"/>
<path d="" fill="#3B3A38" transform="translate(0,0)"/>
<path d="" fill="#2F2E2B" transform="translate(0,0)"/>
<path d="" fill="#363335" transform="translate(0,0)"/>
<path d="" fill="#3E3D3B" transform="translate(0,0)"/>
<path d="" fill="#313130" transform="translate(0,0)"/>
<path d="" fill="#3B3C39" transform="translate(0,0)"/>
<path d="" fill="#41403F" transform="translate(0,0)"/>
<path d="" fill="#3E3D3D" transform="translate(0,0)"/>
<path d="" fill="#333231" transform="translate(0,0)"/>
<path d="" fill="#383432" transform="translate(0,0)"/>
<path d="" fill="#323332" transform="translate(0,0)"/>
<path d="" fill="#323030" transform="translate(0,0)"/>
<path d="" fill="#2F2C2B" transform="translate(0,0)"/>
<path d="" fill="#363634" transform="translate(0,0)"/>
<path d="" fill="#393B39" transform="translate(0,0)"/>
<path d="" fill="#3E3E3E" transform="translate(0,0)"/>
<path d="" fill="#383837" transform="translate(0,0)"/>
<path d="" fill="#313332" transform="translate(0,0)"/>
<path d="" fill="#3C3C3B" transform="translate(0,0)"/>
<path d="" fill="#393939" transform="translate(0,0)"/>
<path d="" fill="#2E2D2B" transform="translate(0,0)"/>
<path d="" fill="#312F2E" transform="translate(0,0)"/>
<path d="" fill="#363332" transform="translate(0,0)"/>
<path d="" fill="#363532" transform="translate(0,0)"/>
<path d="" fill="#363534" transform="translate(0,0)"/>
<path d="" fill="#343532" transform="translate(0,0)"/>
<path d="" fill="#2B2829" transform="translate(0,0)"/>
<path d="" fill="#353534" transform="translate(0,0)"/>
<path d="" fill="#383736" transform="translate(0,0)"/>
<path d="" fill="#2F2F2E" transform="translate(0,0)"/>
<path d="" fill="#323232" transform="translate(0,0)"/>
<path d="" fill="#3C3C3A" transform="translate(0,0)"/>
<path d="" fill="#303031" transform="translate(0,0)"/>
<path d="" fill="#2E2F2E" transform="translate(0,0)"/>
<path d="" fill="#322F2F" transform="translate(0,0)"/>
<path d="" fill="#302F2F" transform="translate(0,0)"/>
<path d="" fill="#2C2B2C" transform="translate(0,0)"/>
<path d="" fill="#32312F" transform="translate(0,0)"/>
<path d="" fill="#313430" transform="translate(0,0)"/>
<path d="" fill="#313030" transform="translate(0,0)"/>
<path d="" fill="#2F2F30" transform="translate(0,0)"/>
<path d="" fill="#383938" transform="translate(0,0)"/>
<path d="" fill="#31322F" transform="translate(0,0)"/>
<path d="" fill="#323130" transform="translate(0,0)"/>
<path d="" fill="#2C2B2A" transform="translate(0,0)"/>
<path d="" fill="#2E2E2C" transform="translate(0,0)"/>
<path d="" fill="#2F2D2B" transform="translate(0,0)"/>
<path d="" fill="#2B292B" transform="translate(0,0)"/>
<path d="" fill="#2F302E" transform="translate(0,0)"/>
<path d="" fill="#2F3230" transform="translate(0,0)"/>
<path d="" fill="#2F2F2C" transform="translate(0,0)"/>
<path d="" fill="#323231" transform="translate(0,0)"/>
<path d="" fill="#302F30" transform="translate(0,0)"/>
<path d="" fill="#2A292B" transform="translate(0,0)"/>
<path d="" fill="#2F302E" transform="translate(0,0)"/>
<path d="" fill="#2F302E" transform="translate(0,0)"/>
<path d="" fill="#2B2D2A" transform="translate(0,0)"/>
<path d="" fill="#2C2B28" transform="translate(0,0)"/>
<path d="" fill="#33312F" transform="translate(0,0)"/>
<path d="" fill="#413F3F" transform="translate(0,0)"/>
<path d="" fill="#2A2A26" transform="translate(0,0)"/>
<path d="" fill="#302D2B" transform="translate(0,0)"/>
<path d="" fill="#2D2C2C" transform="translate(0,0)"/>
<path d="" fill="#2B2B29" transform="translate(0,0)"/>
<path d="" fill="#302F2E" transform="translate(0,0)"/>
<path d="" fill="#2E2E2C" transform="translate(0,0)"/>
<path d="" fill="#2F302D" transform="translate(0,0)"/>
<path d="" fill="#2D2C29" transform="translate(0,0)"/>
<path d="" fill="#2F2E2D" transform="translate(0,0)"/>
<path d="" fill="#303030" transform="translate(0,0)"/>
<path d="" fill="#2F2F2C" transform="translate(0,0)"/>
<path d="" fill="#333430" transform="translate(0,0)"/>
<path d="" fill="#2E2B2C" transform="translate(0,0)"/>
<path d="" fill="#302F2F" transform="translate(0,0)"/>
<path d="" fill="#2B2B28" transform="translate(0,0)"/>
<path d="" fill="#282A27" transform="translate(0,0)"/>
<path d="" fill="#2D2C2A" transform="translate(0,0)"/>
<path d="" fill="#2A2B2A" transform="translate(0,0)"/>
<path d="" fill="#2F2F2D" transform="translate(0,0)"/>
<path d="" fill="#2C2C2B" transform="translate(0,0)"/>
<path d="" fill="#292928" transform="translate(0,0)"/>
<path d="" fill="#2D2D2D" transform="translate(0,0)"/>
<path d="" fill="#262526" transform="translate(0,0)"/>
<path d="" fill="#2D2C2A" transform="translate(0,0)"/>
<path d="" fill="#2C2D2A" transform="translate(0,0)"/>
<path d="" fill="#2D2C2C" transform="translate(0,0)"/>
<path d="" fill="#292729" transform="translate(0,0)"/>
<path d="" fill="#2E2C2B" transform="translate(0,0)"/>
<path d="" fill="#2A2829" transform="translate(0,0)"/>
<path d="" fill="#2F2D2D" transform="translate(0,0)"/>
<path d="" fill="#31302E" transform="translate(0,0)"/>
<path d="" fill="#2B2A28" transform="translate(0,0)"/>
<path d="" fill="#2D2C2C" transform="translate(0,0)"/>
<path d="" fill="#242625" transform="translate(0,0)"/>
<path d="" fill="#2C2D2E" transform="translate(0,0)"/>
<path d="" fill="#2C2C2C" transform="translate(0,0)"/>
<path d="" fill="#2E2E2B" transform="translate(0,0)"/>
<path d="" fill="#302E2E" transform="translate(0,0)"/>
<path d="" fill="#2E2C2B" transform="translate(0,0)"/>
<path d="" fill="#2B2A29" transform="translate(0,0)"/>
<path d="" fill="#2E2E2D" transform="translate(0,0)"/>
<path d="" fill="#2A2B29" transform="translate(0,0)"/>
<path d="" fill="#302D2C" transform="translate(0,0)"/>
<path d="" fill="#2E302D" transform="translate(0,0)"/>
<path d="" fill="#2C2C2B" transform="translate(0,0)"/>
<path d="" fill="#292828" transform="translate(0,0)"/>
<path d="" fill="#2A2B29" transform="translate(0,0)"/>
<path d="" fill="#2E2C2E" transform="translate(0,0)"/>
<path d="" fill="#2E2B29" transform="translate(0,0)"/>
<path d="" fill="#2D2C29" transform="translate(0,0)"/>
<path d="" fill="#2C2C2C" transform="translate(0,0)"/>
<path d="" fill="#30302E" transform="translate(0,0)"/>
<path d="" fill="#2C2A29" transform="translate(0,0)"/>
<path d="" fill="#252723" transform="translate(0,0)"/>
<path d="" fill="#2A2929" transform="translate(0,0)"/>
<path d="" fill="#2A2926" transform="translate(0,0)"/>
<path d="" fill="#2D2B2A" transform="translate(0,0)"/>
<path d="" fill="#292928" transform="translate(0,0)"/>
<path d="" fill="#2A2928" transform="translate(0,0)"/>
<path d="" fill="#2B2926" transform="translate(0,0)"/>
<path d="" fill="#2B2A28" transform="translate(0,0)"/>
<path d="" fill="#292926" transform="translate(0,0)"/>
<path d="" fill="#29292A" transform="translate(0,0)"/>
<path d="" fill="#282927" transform="translate(0,0)"/>
<path d="" fill="#2B2927" transform="translate(0,0)"/>
<path d="" fill="#2E2D2D" transform="translate(0,0)"/>
<path d="" fill="#292925" transform="translate(0,0)"/>
<path d="" fill="#2B2C2A" transform="translate(0,0)"/>
<path d="" fill="#2B2A29" transform="translate(0,0)"/>
<path d="" fill="#2D2D2B" transform="translate(0,0)"/>
<path d="" fill="#2C2B2B" transform="translate(0,0)"/>
<path d="" fill="#2B2B2A" transform="translate(0,0)"/>
<path d="" fill="#2D2E2C" transform="translate(0,0)"/>
<path d="" fill="#272724" transform="translate(0,0)"/>
<path d="" fill="#2C2C2B" transform="translate(0,0)"/>
<path d="" fill="#31312E" transform="translate(0,0)"/>
<path d="" fill="#2E2D2B" transform="translate(0,0)"/>
<path d="" fill="#2E2D2A" transform="translate(0,0)"/>
<path d="" fill="#2C2C2C" transform="translate(0,0)"/>
<path d="" fill="#2E2F2D" transform="translate(0,0)"/>
<path d="" fill="#353230" transform="translate(0,0)"/>
<path d="" fill="#343232" transform="translate(0,0)"/>
<path d="" fill="#2B2B2B" transform="translate(0,0)"/>
<path d="" fill="#222322" transform="translate(0,0)"/>
<path d="" fill="#2D2A2A" transform="translate(0,0)"/>
<path d="" fill="#2F2E2C" transform="translate(0,0)"/>
<path d="" fill="#292827" transform="translate(0,0)"/>
<path d="" fill="#363634" transform="translate(0,0)"/>
<path d="" fill="#2E2E2A" transform="translate(0,0)"/>
<path d="" fill="#373635" transform="translate(0,0)"/>
<path d="" fill="#353533" transform="translate(0,0)"/>
<path d="" fill="#373636" transform="translate(0,0)"/>
<path d="" fill="#2C2D2B" transform="translate(0,0)"/>
<path d="" fill="#292A29" transform="translate(0,0)"/>
<path d="" fill="#383736" transform="translate(0,0)"/>
<path d="" fill="#2D2E2C" transform="translate(0,0)"/>
<path d="" fill="#3C3B3B" transform="translate(0,0)"/>
<path d="" fill="#2C2B2B" transform="translate(0,0)"/>
<path d="" fill="#262423" transform="translate(0,0)"/>
<path d="" fill="#2A2929" transform="translate(0,0)"/>
<path d="" fill="#363735" transform="translate(0,0)"/>
<path d="" fill="#2B292A" transform="translate(0,0)"/>
<path d="" fill="#2B2A28" transform="translate(0,0)"/>
<path d="" fill="#3E3C3C" transform="translate(0,0)"/>
<path d="" fill="#2C2C2C" transform="translate(0,0)"/>
<path d="" fill="#2B2B29" transform="translate(0,0)"/>
<path d="" fill="#2D2D2B" transform="translate(0,0)"/>
<path d="" fill="#2B2928" transform="translate(0,0)"/>
<path d="" fill="#2C2B2A" transform="translate(0,0)"/>
<path d="" fill="#262524" transform="translate(0,0)"/>
<path d="" fill="#2D2A2A" transform="translate(0,0)"/>
<path d="" fill="#2D2929" transform="translate(0,0)"/>
<path d="" fill="#2B2929" transform="translate(0,0)"/>
<path d="" fill="#2F2C2D" transform="translate(0,0)"/>
<path d="" fill="#292B27" transform="translate(0,0)"/>
<path d="" fill="#282723" transform="translate(0,0)"/>
<path d="" fill="#2E2D2D" transform="translate(0,0)"/>
<path d="" fill="#292A27" transform="translate(0,0)"/>
<path d="" fill="#2B2929" transform="translate(0,0)"/>
<path d="" fill="#2F2F2E" transform="translate(0,0)"/>
<path d="" fill="#292A28" transform="translate(0,0)"/>
<path d="" fill="#2C2A27" transform="translate(0,0)"/>
<path d="" fill="#2B2829" transform="translate(0,0)"/>
<path d="" fill="#343434" transform="translate(0,0)"/>
<path d="" fill="#282725" transform="translate(0,0)"/>
<path d="" fill="#2B2828" transform="translate(0,0)"/>
<path d="" fill="#2A2927" transform="translate(0,0)"/>
<path d="" fill="#2B2729" transform="translate(0,0)"/>
<path d="" fill="#272826" transform="translate(0,0)"/>
<path d="" fill="#292928" transform="translate(0,0)"/>
<path d="" fill="#2A2C28" transform="translate(0,0)"/>
<path d="" fill="#272625" transform="translate(0,0)"/>
<path d="" fill="#292929" transform="translate(0,0)"/>
<path d="" fill="#363535" transform="translate(0,0)"/>
<path d="" fill="#2D2B2B" transform="translate(0,0)"/>
<path d="" fill="#302F2D" transform="translate(0,0)"/>
<path d="" fill="#312F2E" transform="translate(0,0)"/>
<path d="" fill="#272322" transform="translate(0,0)"/>
<path d="" fill="#2E2F2E" transform="translate(0,0)"/>
<path d="" fill="#302F2D" transform="translate(0,0)"/>
<path d="" fill="#2A2828" transform="translate(0,0)"/>
<path d="" fill="#282726" transform="translate(0,0)"/>
<path d="" fill="#2F2F2E" transform="translate(0,0)"/>
<path d="" fill="#353434" transform="translate(0,0)"/>
<path d="" fill="#262524" transform="translate(0,0)"/>
<path d="" fill="#2A2828" transform="translate(0,0)"/>
<path d="" fill="#292A2A" transform="translate(0,0)"/>
<path d="" fill="#2A2728" transform="translate(0,0)"/>
<path d="" fill="#252624" transform="translate(0,0)"/>
<path d="" fill="#2B2B2A" transform="translate(0,0)"/>
<path d="" fill="#2E2C2A" transform="translate(0,0)"/>
<path d="" fill="#2B2B29" transform="translate(0,0)"/>
<path d="" fill="#383533" transform="translate(0,0)"/>
<path d="" fill="#282525" transform="translate(0,0)"/>
<path d="" fill="#282623" transform="translate(0,0)"/>
<path d="" fill="#232122" transform="translate(0,0)"/>
<path d="" fill="#2D2A2B" transform="translate(0,0)"/>
<path d="" fill="#2E2C29" transform="translate(0,0)"/>
<path d="" fill="#2B2927" transform="translate(0,0)"/>
<path d="" fill="#272622" transform="translate(0,0)"/>
<path d="" fill="#3C3A3A" transform="translate(0,0)"/>
<path d="" fill="#272824" transform="translate(0,0)"/>
<path d="" fill="#2C2B29" transform="translate(0,0)"/>
<path d="" fill="#2E2D2A" transform="translate(0,0)"/>
<path d="" fill="#242321" transform="translate(0,0)"/>
<path d="" fill="#2D2B28" transform="translate(0,0)"/>
<path d="" fill="#2B2826" transform="translate(0,0)"/>
<path d="" fill="#30302E" transform="translate(0,0)"/>
<path d="" fill="#2C2B2A" transform="translate(0,0)"/>
<path d="" fill="#2C2B29" transform="translate(0,0)"/>
<path d="" fill="#272524" transform="translate(0,0)"/>
<path d="" fill="#2D2A29" transform="translate(0,0)"/>
<path d="" fill="#282725" transform="translate(0,0)"/>
<path d="" fill="#383837" transform="translate(0,0)"/>
<path d="" fill="#2F302C" transform="translate(0,0)"/>
<path d="" fill="#2C2D2A" transform="translate(0,0)"/>
<path d="" fill="#2A2729" transform="translate(0,0)"/>
<path d="" fill="#262723" transform="translate(0,0)"/>
<path d="" fill="#2E2F2E" transform="translate(0,0)"/>
<path d="" fill="#272726" transform="translate(0,0)"/>
<path d="" fill="#272526" transform="translate(0,0)"/>
<path d="" fill="#262623" transform="translate(0,0)"/>
<path d="" fill="#2A2829" transform="translate(0,0)"/>
<path d="" fill="#262521" transform="translate(0,0)"/>
<path d="" fill="#292926" transform="translate(0,0)"/>
<path d="" fill="#302D2E" transform="translate(0,0)"/>
<path d="" fill="#2B2B29" transform="translate(0,0)"/>
<path d="" fill="#312E2F" transform="translate(0,0)"/>
<path d="" fill="#302F2E" transform="translate(0,0)"/>
<path d="" fill="#312F2D" transform="translate(0,0)"/>
<path d="" fill="#2F2F2D" transform="translate(0,0)"/>
<path d="" fill="#2F2F2F" transform="translate(0,0)"/>
<path d="" fill="#2D2B2B" transform="translate(0,0)"/>
<path d="" fill="#303030" transform="translate(0,0)"/>
<path d="" fill="#323130" transform="translate(0,0)"/>
<path d="" fill="#323231" transform="translate(0,0)"/>
<path d="" fill="#323130" transform="translate(0,0)"/>
<path d="" fill="#222320" transform="translate(0,0)"/>
<path d="" fill="#282729" transform="translate(0,0)"/>
<path d="" fill="#333130" transform="translate(0,0)"/>
<path d="" fill="#333031" transform="translate(0,0)"/>
<path d="" fill="#323232" transform="translate(0,0)"/>
<path d="" fill="#353332" transform="translate(0,0)"/>
<path d="" fill="#2E2E2B" transform="translate(0,0)"/>
<path d="" fill="#33322F" transform="translate(0,0)"/>
<path d="" fill="#292827" transform="translate(0,0)"/>
<path d="" fill="#31302E" transform="translate(0,0)"/>
<path d="" fill="#2B2A29" transform="translate(0,0)"/>
<path d="" fill="#2B2928" transform="translate(0,0)"/>
<path d="" fill="#2D2D2D" transform="translate(0,0)"/>
<path d="" fill="#2A2928" transform="translate(0,0)"/>
<path d="" fill="#2B2A2A" transform="translate(0,0)"/>
<path d="" fill="#363433" transform="translate(0,0)"/>
<path d="" fill="#383637" transform="translate(0,0)"/>
<path d="" fill="#353432" transform="translate(0,0)"/>
<path d="" fill="#383735" transform="translate(0,0)"/>
<path d="" fill="#343533" transform="translate(0,0)"/>
<path d="" fill="#363634" transform="translate(0,0)"/>
<path d="" fill="#353434" transform="translate(0,0)"/>
<path d="" fill="#2B2C29" transform="translate(0,0)"/>
<path d="" fill="#2D292A" transform="translate(0,0)"/>
<path d="" fill="#2A292A" transform="translate(0,0)"/>
<path d="" fill="#2C2928" transform="translate(0,0)"/>
<path d="" fill="#2D2F2A" transform="translate(0,0)"/>
<path d="" fill="#2C2E29" transform="translate(0,0)"/>
<path d="" fill="#2C2B28" transform="translate(0,0)"/>
<path d="" fill="#2F2E2B" transform="translate(0,0)"/>
<path d="" fill="#2D2F2C" transform="translate(0,0)"/>
<path d="" fill="#2F2C2A" transform="translate(0,0)"/>
<path d="" fill="#2E2C2C" transform="translate(0,0)"/>
<path d="" fill="#2E2D2E" transform="translate(0,0)"/>
<path d="" fill="#2D2C2D" transform="translate(0,0)"/>
<path d="" fill="#2E2F2A" transform="translate(0,0)"/>
<path d="" fill="#2D2F2C" transform="translate(0,0)"/>
<path d="" fill="#2C2D2A" transform="translate(0,0)"/>
<path d="" fill="#2D2F2B" transform="translate(0,0)"/>
<path d="" fill="#30312F" transform="translate(0,0)"/>
<path d="" fill="#2F2F30" transform="translate(0,0)"/>
<path d="" fill="#2E2D2C" transform="translate(0,0)"/>
<path d="" fill="#2D2B2D" transform="translate(0,0)"/>
<path d="" fill="#302F2D" transform="translate(0,0)"/>
<path d="" fill="#32302F" transform="translate(0,0)"/>
<path d="" fill="#2F2E2B" transform="translate(0,0)"/>
<path d="" fill="#343332" transform="translate(0,0)"/>
<path d="" fill="#333231" transform="translate(0,0)"/>
<path d="" fill="#34302F" transform="translate(0,0)"/>
<path d="" fill="#33322E" transform="translate(0,0)"/>
<path d="" fill="#342F2F" transform="translate(0,0)"/>
<path d="" fill="#303230" transform="translate(0,0)"/>
<path d="" fill="#333232" transform="translate(0,0)"/>
<path d="" fill="#313130" transform="translate(0,0)"/>
<path d="" fill="#333232" transform="translate(0,0)"/>
<path d="" fill="#343233" transform="translate(0,0)"/>
<path d="" fill="#302E2D" transform="translate(0,0)"/>
<path d="" fill="#333230" transform="translate(0,0)"/>
<path d="" fill="#393635" transform="translate(0,0)"/>
<path d="" fill="#383535" transform="translate(0,0)"/>
</svg>
